<?xml version="1.0" encoding="UTF-8"?>
<svg id="Layer_1" data-name="Layer 1" xmlns="http://www.w3.org/2000/svg" viewBox="0 0 231.55 231.55">
  <defs>
    <style>
      .cls-1 {
        fill: #efe4d2;
      }
    </style>
  </defs>
  <g>
    <g>
      <path class="cls-1" d="m122.01,45.27c-.59.28-1.12.52-1.64.78-.24.12-.46.25-.64.4-1.18.96-1.91,2.3-2.32,4.21-.16.77-.33,1.57-.75,2.28-.2.34-.27.74-.34,1.13-.02.13-.05.25-.08.38,0-.59-.02-1.18-.04-1.77-.03-1.1-.05-2.24-.05-3.36,0-.5.08-1.02.15-1.52.02-.13.03-.26.05-.39,1.28-2.53,1.26-8.24-.06-9.53l-.11-.11-.08.13c-.67,1.14-1.05,2.8-1.14,4.45-.41,1.34-.34,2.38.23,3.98.29.8.44,1.58.45,2.27.03,2.28,0,4.59-.04,6.83l-.02,1.44c-.02,1.71-.05,3.41-.07,5.12-.02,1.53-.05,3.07-.07,4.6-.02,1.83-.04,3.65-.06,5.48-.01,1.31-.03,2.61-.04,3.91-.02,1.84-.05,3.68-.08,5.51-.45-.65-.86-1.38-.92-2.32-.13-1.96-1.12-3.55-2.92-4.73-.21-.14-.37-.17-.51-.1-.13.07-.2.23-.21.49-.06,2.49.92,4.35,2.99,5.68,1.06.68,1.56,1.4,1.56,2.28.02,3.5.01,7.07,0,10.51v3.08c0,.14-.01.28-.03.45,0,.01,0,.02,0,.03-.06-.06-.12-.11-.18-.16-.24-.22-.46-.42-.64-.63-.22-.25-.34-.49-.36-.67-.12-1.24-.43-2.19-.96-2.99-.83-1.25-1.96-1.89-3.35-1.9-.19,0-.44.02-.55.18-.07.11-.07.25,0,.42.25.61.52,1.26.87,1.86.81,1.4,1.99,2.47,3.61,3.29,1.2.61,1.7,1.43,1.62,2.67-.09,1.32-.07,2.67-.05,3.98,0,.56.02,1.12.02,1.69,0,0,0,6.43,0,6.43,0,5.5,0,11,0,16.49,0,1.28,0,2.55,0,3.83,0,.59,0,1.17,0,1.76,0,.28,0,.56,0,.84.01.6.08,1.26,0,1.86-.02.16-.04.33-.06.49,0,.02-.01.04-.02.06-.05.14-.14.27-.11.44,0,.03-.01.06-.03.08-.05.14-.13.28-.16.43-.04.19-.11.36-.19.54-.07.16-.14.32-.21.49-.05.11-.1.2-.18.29-.01.02-.02.03-.04.05-.12.16-.23.32-.36.48-.04.05-.08.1-.08.17,0,.05-.02.09-.07.07-.08-.02-.12.03-.16.07-.09.08-.15.22-.31.19-.03,0-.08.02-.12.04-.1.06-.2.12-.31.17-.12.05-.24.1-.37.13-.11.02-.22.01-.33.05-.18.06-.38.09-.57.12-.04,0-.09-.01-.14-.03-.06-.02-.13-.07-.19-.07-.15,0-.29,0-.44.04-.07.01-.14.07-.19.13-.02.02.02.08.03.12,0,.01,0,.03.01.04.03.08.07.14.16.16.04.01.07.04.1.07.05.05.09.1.14.14.05.04.1.05.14,0,.04-.05.08-.04.11.01.03.04.05.1.09.12.14.07.26.17.44.17.12,0,.24.05.36.08.05.01.09.01.14.02.04,0,.08-.01.12,0,.12.01.24.03.36.05.15.03.28-.01.41-.07.07-.03.13-.07.2-.07.11,0,.18-.05.25-.13.02-.02.03-.04.05-.05.09-.05.14-.12.14-.22,0-.07.07-.08.13-.08.05,0,.09.02.1.08.04.24.2.43.34.61.11.15.26.31.48.36.03,0,.06.04.09.07.07.08.15.15.25.2.15.07.28.18.34.34.01.04.06.08.1.08.11.01.22,0,.32,0,.06,0,.1-.04.12-.1.02-.05.05-.11.09-.14.16-.13.33-.26.5-.39.03-.02.06-.03.09-.04.1-.03.19-.07.23-.17.01-.03.04-.05.07-.06.11-.04.17-.13.23-.22.04-.05.04-.12.08-.16.09-.11.14-.23.18-.36.01-.04.06-.08.1-.08.03,0,.09.04.1.07.05.15.15.26.28.32.19.09.39.16.59.22.08.02.18,0,.27,0,.16,0,.31-.01.47-.02.04,0,.08,0,.11-.02.11-.07.22-.09.34-.09.15,0,.27-.09.4-.15.03-.01.05-.05.06-.08.03-.06.13-.11.18-.07.09.07.14.04.19-.05,0,0,.01-.01.02-.02.07-.06.14-.12.22-.17.1-.07.16-.17.15-.27,0-.1-.12-.14-.21-.15-.17-.02-.34-.03-.52-.03-.02,0-.06.02-.07.04-.04.06-.09.06-.15.04-.09-.02-.17-.04-.26-.06-.15-.03-.3-.07-.45-.1-.04,0-.1-.02-.13,0-.08.06-.14.05-.2-.02-.01-.01-.03-.02-.05-.02-.19-.09-.37-.18-.56-.27-.03-.01-.07-.02-.1-.03-.05-.02-.11-.04-.16-.08-.07-.05-.12-.13-.19-.15-.1-.03-.16-.08-.18-.18,0-.01-.01-.02-.02-.03-.14-.18-.29-.36-.42-.55-.07-.1-.14-.21-.18-.32-.03-.07-.04-.14-.1-.19-.02-.02-.03-.06-.05-.09-.05-.13-.11-.25-.16-.38-.03-.07-.07-.13-.07-.2-.02-.39-.25-.82-.32-1.21-.11-.59-.13-1.2-.05-1.8-.16-.91-.03-1.94-.03-2.86,0-1.07,0-2.14,0-3.2,0-2.08,0-4.15,0-6.23,0-1.79,0-3.59,0-5.38,0-6.3,0-11.25,0-13.04,0-.12.02-.24.04-.37.02-.14.04-.28.04-.42,0-.6-.02-1.19-.03-1.79-.02-.99-.04-2.02-.04-3.03,0-.29.08-.65.24-.81.55-.53,1.06-.91,1.55-1.17,2.05-1.07,3.43-2.68,4.24-4.93.09-.24.09-.41,0-.54-.11-.16-.33-.18-.51-.18h-.05c-.9,0-1.73.32-2.46.94-1.09.92-1.69,2.18-1.73,3.62-.02.67-.4.97-.79,1.3-.17.14-.34.28-.49.45,0-.04-.01-.07-.01-.11,0-.68.01-1.37.02-2.05.02-1.38.03-2.8.03-4.2,0-1.03-.01-2.06-.03-3.09-.01-1.15-.03-2.34-.03-3.5,0-.48.06-.97.12-1.44.02-.14.03-.29.05-.43l.26.26s-.2-.49-.2-.49l.1-.08c.14-.12.29-.25.42-.38.09-.09.18-.19.26-.29.15-.18.29-.35.47-.44,1.7-.93,2.69-2.4,3.04-4.52.06-.37.04-.75.02-1.15-.01-.2-.02-.4-.03-.61v-.19s-.17.09-.17.09c-1.64.85-2.68,2.08-3.18,3.75-.12.41-.21.84-.29,1.25-.16.83-.32,1.61-.77,2.32-.05-.1-.1-.2-.1-.29-.01-1.14-.01-2.28-.02-3.42,0-1.39,0-2.78-.03-4.18-.03-2.22-.06-4.44-.1-6.66-.03-1.89-.06-3.78-.09-5.68-.01-1.12-.02-2.24-.02-3.36,0-1.02,0-.81-.02-1.83,0-.06,0-.12,0-.18l.37-1.13.06-.2c.02-.07.05-.15.06-.22.21-1.08.69-1.91,1.44-2.54.35-.29.7-.57,1.06-.85.47-.37.95-.75,1.41-1.15.79-.68,1.69-1.46,1.93-2.68.09-.46.17-.93.25-1.42.04-.23.08-.47.12-.71l.04-.23-.97.45Zm-6.18,97s-.06-.08-.05-.1c.01-.03.05-.06.08-.07.05,0,.12,0,.11.07,0,.03-.08.05-.14.09Z"/>
      <path class="cls-1" d="m98.97,81.55c-.45.27-.81.75-1.02,1.11-.95,1.58-1.04,3.34-1.12,5.05-.01.25-.03.49-.04.74v.07s.32.21.32.21l.07-.06c.1-.09.2-.17.3-.26.22-.19.44-.38.65-.58,1.38-1.35,1.57-3.19,1.64-4.81.04-1.01.4-1.85.78-2.68.05-.11.26-.24.44-.27.38-.06.77-.1,1.19-.13.17-.01.35-.03.53-.05h.76s-.31-.2-.31-.2c-.05-.03-.08-.05-.11-.07-.06-.04-.1-.07-.16-.07-.1-.01-.61-.04-.71-.04h-.09c-1.2-.06-2.37.13-3.47.55-.51.19-1.02.41-1.51.61-.42.17-.84.35-1.26.51-.22.09-.48.12-.68.12-.3,0-.6-.04-.89-.06-.55-.05-1.11-.1-1.65-.03-1.74.21-3.13,1.22-4.47,2.19l-.17.12c-.06.04-.07.11-.08.19,0,.04-.01.08-.03.14l-.03.12.11.03c.18.04.36.09.53.14.39.11.8.22,1.21.27,1.59.19,3.09-.32,4.47-1.51,1.12-.97,2.4-1.65,3.9-2.1.44-.13.87-.24,1.35-.37.16-.04.32-.09.49-.13,0,.02-.02.03-.02.05-.25.52-.45.94-.92,1.21Z"/>
      <path class="cls-1" d="m110.42,69.31c.38,1.7,1.72,2.63,2.84,3.26.44.24.74.49.89.98.11.35.31.67.5.98.08.13.17.27.24.4l.44,1.08.18-.97-.26-.29c-.03-.07-.06-.14-.1-.21-.07-.15-.14-.29-.18-.44-.06-.21-.13-.41-.2-.62-.17-.52-.35-1.05-.41-1.58-.25-2.2-1.32-3.69-3.27-4.56-.03-.01-.06-.03-.09-.05.07-.17.14-.34.2-.5.21-.53.41-1.03.63-1.52.04-.09.24-.21.37-.22.6-.06,1.15.14,1.7.58.19.15.4.28.6.41.09.06.18.11.27.17l.8.51.26-.43-.8-.5c-.21-.13-.42-.26-.64-.39-.49-.31-.99-.62-1.53-.85-.56-.24-1.21-.16-1.71.21-.19,0-.4.03-.53.06,0,0-.02,0-.03,0-.57.04-1.11.26-1.59.68-1.08.95-1.84,2.86-1.94,4.89v.28s3.31-2.9,3.31-2.9l.02-.02c0,.12-.01.23-.02.34-.02.43-.04.83.04,1.22Z"/>
      <path class="cls-1" d="m85.82,58.87c.09.07.18.14.26.22.13.13.28.26.42.39.33.29.66.59.87.95.5.88.85,1.85,1.13,2.68.56,1.65,1.34,2.79,2.46,3.58.33.23.68.46,1.02.67.38.25.78.5,1.15.77,1.06.77,2.15,1.59,2.82,2.8l-.43-.02c-.12,0-.25,0-.38,0-.32,0-.68,0-1.02-.08-2.3-.54-4.56-.26-6.89.85-.31.15-.6.34-.9.54-.15.1-.3.2-.47.3l-.14.08.12.11c.7.61,1.41.9,2.31.93.08,0,.16,0,.24,0,1.14,0,2.27-.26,3.38-.76,1.03-.47,2.05-.94,3.02-1.39l1.17-.54c.03.06.07.11.1.16.07.14.22.22.37.29.06.03.11.06.16.09l.09.06.26-.31-.07-.08c-.2-.23-.4-.46-.6-.69-.46-.53-.93-1.08-1.43-1.58-.45-.45-.74-.98-.9-1.66-.52-2.16-1.34-3.94-2.51-5.46-1.57-2.05-3.42-3.1-5.66-3.22l-.36-.02.28.23s.09.07.13.11Z"/>
      <path class="cls-1" d="m101.55,50.79s.06.07.11.09c.05.02.13.03.21.03.78-.03,1.32.37,1.62,1.19.2.57.33,1.18.45,1.77l.03.13c.13.63.39,1.54,1.15,2.13.98.76,1.87,1.37,2.72,1.86,1.05.61,1.94,1.41,2.71,2.41h0c-.89-.62-1.9-.88-3.12-.84h-.26c-1.02.06-1.97.11-2.82-.54-.06-.04-.12-.02-.18,0-.02,0-.05.02-.09.03l-.13.03.05.12c.34.91.99,1.61,2.01,2.14.56.29,1.09.41,1.6.41,1.1,0,2.08-.56,2.94-1.17l.1-.07c.3.4.58.82.83,1.28.25.44.43.93.61,1.4.08.22.17.44.26.66l.38,1.19.11-.27c.1-.24.05-.46-.01-.65-.02-.06-.32-1.04-.35-1.1-.03-.06-.06-.11-.07-.16-.43-1.57-1.25-2.9-2.43-3.97-.28-.25-.59-.5-.96-.76l-.04-.03c-.53-.37-.98-.69-1.08-1.39-.11-.81-.32-1.66-.62-2.6-.66-2.05-1.92-3.33-3.76-3.81-.78-.2-1.43-.13-1.98.23l-.12.08.09.1s.04.04.05.06Z"/>
      <path class="cls-1" d="m97.02,70.87c.01.15.02.31.02.46.01.63.02,1.35.89,1.81l.45.24-.3-.41c-.51-.71-.7-1.49-.56-2.39.07-.46.18-.93.3-1.38.04-.16.08-.32.12-.47.08-.34.19-.69.29-1.03.23-.75.46-1.52.46-2.29,0-1.12-.21-2.26-.4-3.36-.08-.44-.15-.88-.22-1.32-.02-.12-.11-.21-.16-.27l-.12-.18-.08.21c-.14.35-.27.7-.41,1.05-.29.76-.59,1.55-.95,2.3-.95,2-.85,3.91.33,5.82.18.3.3.7.35,1.21Z"/>
      <path class="cls-1" d="m101.1,97.87s.04.07.06.1l.17.73.17-.05.07-.69c.07-.33.16-.66.25-.99.19-.71.39-1.45.44-2.19.17-2.71-.46-5.11-1.87-7.15-.07-.1-.16-.18-.25-.26-.04-.03-.07-.07-.11-.1l-.09-.09-.08.11s-.07.08-.11.12c-.09.1-.17.19-.23.32-.59,1.32-.66,2.77-.21,4.44.36,1.33.79,2.67,1.2,3.96.16.5.32,1,.47,1.5.03.09.08.17.13.25Z"/>
      <path class="cls-1" d="m91.49,98.93c.05.13.09.26.14.37l.09.22.12-.21c1.38-2.32.53-8.76-1.43-10.78l-.14-.14-.06.18c-.03.09-.06.17-.09.24-.06.15-.11.29-.13.43-.03.21-.07.43-.1.64-.1.64-.21,1.3-.23,1.95-.09,2.12.4,4.19,1.44,6.15.16.3.28.64.39.93Z"/>
      <path class="cls-1" d="m100.83,98.01c-.11-.08-.21-.15-.32-.23-.24-.17-.49-.34-.7-.53-.28-.24-.48-.49-.59-.72-.25-.49-.48-1-.71-1.5-.38-.84-.78-1.7-1.25-2.51-.81-1.42-2-2.49-3.54-3.18-.33-.15-.68-.24-1.02-.34-.15-.04-.31-.09-.46-.13l-.09-.03-.23.41.1.06c.81.48,1.14,1.27,1.42,2.03.22.6.39,1.14.54,1.66.37,1.31,1.1,2.29,2.17,2.9.57.32,1.16.63,1.73.92.38.19.75.38,1.12.58.37.2.75.42,1.11.63.17.1.34.2.51.29l.1.06.2-.3-.09-.07Z"/>
      <path class="cls-1" d="m107.44,102.19l-.18-.26c-.15-.22-.3-.32-.46-.32h0c-.18,0-.36.13-.54.41-1.66,2.52-1.06,6.44,1.27,8.41.23.19.46.37.67.52.08.06.16.12.22.17l.18.14v-.23c.02-.31.04-.65.05-.99.03-.85.06-1.8.14-2.74.11-1.25-.02-2.35-.38-3.35-.22-.62-.61-1.19-.98-1.74Z"/>
      <path class="cls-1" d="m85.14,98.04c.47-.14.93-.27,1.4-.4l.31-.08s.09.06.13.08c.37.27.79.49,1.18.7.29.16.59.32.87.49.61.38,1.22.8,1.81,1.19.25.17.5.34.75.5l.72.42.38-.22-.84-.54s-.1-.08-.14-.11c-.11-.09-.22-.18-.34-.26-.37-.26-.75-.51-1.13-.76-.59-.4-1.19-.8-1.77-1.21-.47-.32-.64-.7-.55-1.19.06-.31.11-.62.17-.94.05-.32.11-.63.17-.95.24-1.21.4-2.64-.19-4.08-.83-2-2.22-3.58-3.34-4.74-.05-.06-.12-.06-.19-.06-.02,0-.05,0-.08,0h-.12s-.01.11-.01.11c-.16,1.95-.22,4.25.51,6.55.33,1.02.84,2.29,1.94,3.09.56.41.69.86.77,1.54-.03-.01-.06-.03-.09-.04-.16-.07-.3-.12-.42-.2l-.3-.18c-.44-.27-.9-.54-1.31-.86-.27-.2-.5-.49-.64-.79-.21-.44-.39-.91-.58-1.35-.3-.74-.61-1.51-1.02-2.21-1.2-2.1-2.94-3.82-5.31-5.28l-.14-.08-.04.15c-.02.06-.03.11-.05.16-.03.09-.06.16-.04.24.33,1.87,1.02,3.6,2.04,5.15,1.3,1.97,3.23,3.16,5.1,4.3.69.42,1.4.86,2.07,1.33l-.26-.12c-.15-.07-.29-.07-.42-.08-.07,0-.13,0-.2-.02h-.07c-.4-.09-.8-.17-1.18-.31-.22-.08-.43-.19-.64-.29-.27-.14-.56-.28-.86-.36-1.59-.46-3.26-.36-5.12.28-.51.18-.99.39-1.5.62-.23.1-.45.2-.69.3l-.13.05.07.12c.04.06.06.1.08.14.04.06.06.1.1.14.08.07.18.13.25.17,1.07.62,2.26.93,3.59.93.66,0,1.36-.08,2.09-.23,1.08-.22,2.15-.53,3.19-.84Z"/>
      <path class="cls-1" d="m90.7,112.96c.57.06,1.15.07,1.72.08,1.03.01,2.09.03,3.18.35l.62.47.16-.2c-.07-.09-.77-.64-.83-.71-.1-.14-.18-.25-.27-.35-1.78-2.17-4.3-3.42-7.69-3.82-.42-.05-.72-.05-.89.12-.17.17-.17.46-.12.94.02.2.08.4.15.58.62,1.51,1.88,2.32,3.98,2.54Z"/>
      <path class="cls-1" d="m112.75,53.49l-.13-.22-.09.24c-1.24,3.26-1.22,6.43.05,9.7l.06.16.13-.12c1.65-1.52,1.64-6.81-.03-9.76Z"/>
      <path class="cls-1" d="m108.3,116.7c.13-1.12.26-2.29,1.25-3.12l.36-.31c.26.11.52.22.79.32.55.19,1.1.39,1.67.59l3.29,1.14-.03-.2c0-.05-.01-.09-.02-.12,0-.05-.01-.11-.08-.14-.51-.23-3.47-1.29-3.99-1.51-1.07-.46-2.17-.94-3.24-1.43-2.01-.91-3.43-2.2-4.34-3.92-1.05-1.99-1.5-4.19-1.91-6.12-.09-.44-.17-.9-.25-1.34-.04-.21-.07-.41-.11-.62l-.24.03.24-.03c.36-1.39,1.27-2.46,2.3-3.16.4-.27.81-.56,1.2-.87,1.75-1.37,2.05-3.32,2.11-5.23v-.25s-.43.32-.43.32c-.1.07-.16.12-.22.17-2.3,1.89-3.96,4.32-4.93,7.21-.05.16-.12.33-.21.36-.07.02-.17-.02-.31-.11l-.27-.28.53,1.86c.17,4.31,1.14,7.34,3.14,9.82l-7.5-5.49-.23.32,7.46,5.71c-2,.12-3.81.62-5.48,1.49l-.25-.36c-.15-.22-.3-.43-.46-.65-.36-.51-.73-1.03-1.06-1.57-.18-.29-.32-.6-.47-.91-.14-.3-.28-.61-.46-.9-1.08-1.79-2.75-2.75-4.98-2.87-.23,0-.48,0-.61.17-.09.13-.09.31,0,.57.06.16.09.32.12.5.03.16.06.32.11.48.69,2.15,2.86,4.31,5.7,4.31.02,0,.05,0,.07,0,.52,0,.88.15,1.18.49.15.17.34.29.51.41.07.04.34.46.4.5,0,0,.11-.13.11-.13-.09-.06-1,.59-1.11.66-.18.12-.35.25-.52.39-.05.04-.5.42-.52.26-.11.12-.42.42-.09.44.04,0,.06,0,.1,0,.01,0,.08.81.08.88,0,.35-.04.71-.14,1.05-.16.57-.45,1.09-.66,1.64-.36.94-.5,1.96-.41,2.96.08.97.37,1.93.83,2.78.06.1.12.22.23.26.19.08.4-.08.54-.23.75-.83,1.19-1.92,1.27-3.03.08-1.09-.19-2.18-.54-3.22s-.78-2.05-1.05-3.11c.31-.02.53-.2.76-.4.15-.12.28-.24.44-.32l.11-.05c.87-.4,1.77-.82,2.68-1.13.77-.26,1.56-.48,2.34-.68.3-.08.61-.16.91-.24.58-.16,1.13-.05,1.83.38,1.23.74,2.55,1.5,3.96,2.09l-.35.16c-.08.04-.16.08-.24.12-.16.09-.31.17-.47.21-1.37.3-2.39,1.08-3.12,2.39-.91,1.64-.88,3.44-.77,5.13.02.27.05.55.08.82.01.12.03.23.04.35v.09s.4.08.4.08v-.14c.02-.79.51-1.25,1.1-1.73,1.03-.85,1.6-1.94,1.81-3.44.03-.18.05-.37.07-.55Z"/>
      <path class="cls-1" d="m112.12,115.53c-.19.18-.39.36-.59.53-.44.38-.89.78-1.26,1.23-1.25,1.51-1.87,3.27-1.83,5.24,0,.36.05.63.23.74.05.03.11.04.18.04.16,0,.35-.08.58-.21,2.8-1.53,4.19-4.76,3.45-8.04l-.05-.2-.71.66Z"/>
      <path class="cls-1" d="m95.2,114.28c-.12,0-.23-.01-.35-.02-.24,0-.49-.02-.73-.05-1.56-.23-2.82-.19-3.98.13-1.6.44-2.76,1.35-3.45,2.69-.13.25-.16.45-.09.61.06.16.21.29.46.38.58.22,1.16.32,1.73.32s1.17-.12,1.72-.36c1.01-.44,1.95-1.07,2.91-1.74.47-.33.9-.73,1.31-1.11.18-.17.37-.34.56-.51l.06-.05-.08-.3h-.09Z"/>
      <path class="cls-1" d="m110.42,109.41c.29.94.77,1.79,1.46,2.58.33.38.62.81.89,1.23.13.19.26.39.39.58l.6.86-.39-.97c-.36-.88-.49-1.84-.4-3.03.1-1.44.13-2.54.11-3.58-.02-1.1-.46-2.04-1.28-2.73-.21-.18-.46-.35-.69-.29-.18.05-.32.22-.45.57-.63,1.68-.71,3.24-.24,4.79Z"/>
      <path class="cls-1" d="m99.67,70.61c.44,1.67,1.6,2.77,2.79,3.72l.31.25c-.07.31-.14.63-.2.94-.09.46-.15.93-.21,1.39-.03.2-.05.41-.08.61v1.02s.39.05.39.05v-1.02c0-.05,0-.1.01-.16,0-.11.01-.21.04-.31.03-.13.06-.27.08-.4.09-.5.17-.97.66-1.18,1.88-.83,4.39-1.75,7.12-1.44.05,0,.11,0,.16,0,.09,0,.18,0,.29,0h.18l-.07-.16c-.46-1.14-2.13-2.03-3.53-1.87-1.41.16-2.58.89-3.58,2.23-.16.21-.35.41-.53.61-.07.07-.13.14-.2.21l-.06-.03.02-.11c.03-.13.06-.26.08-.4.05-.29.1-.58.16-.87.13-.71.27-1.44.29-2.16.01-.63.17-1.11.52-1.53,1.64-2.01,1.68-4.83.09-6.85-.58-.74-1.22-1.24-1.96-1.54l-.4-.16.26.34c.93,1.23.8,2.58.66,4.02-.07.76-.08,1.6,0,2.57.03.43.09.87.15,1.29.13.97.27,1.98.06,2.97-.07.35-.15.69-.23,1.04-.06.27-.12.56-.18.84l-.14-.32c-.06-.13-.14-.24-.22-.35-.07-.1-.14-.19-.18-.28l-.04-.09c-.12-.25-.25-.53-.22-.75.38-2.39-.17-4.64-1.61-6.68-.18-.26-.4-.49-.62-.72-.1-.1-.2-.21-.29-.32l-.07-.07-.34.2v.07c.05,1.76.14,3.62.61,5.41Z"/>
      <path class="cls-1" d="m110.18,48.95c.44.46.95.88,1.43,1.29l.14.12c.4.34.83.66,1.24.97l.24.18c1.01.77,2.01,2.77,2.35,4.13l.23-.04-.12-.94c-.04-.59-.33-1.3-.62-1.78-.42-.69-.57-1.42-.73-2.19l-.04-.17c-.46-2.17-1.35-3.58-2.82-4.42-.51-.29-1.05-.53-1.62-.78-.27-.12-.56-.24-.85-.38l-.19-.09.04.34c.16,1.4.3,2.71,1.31,3.76Z"/>
      <path class="cls-1" d="m89.91,102.48c.6-.49,1.23-.99,1.97-1.34l.57-.26-.62.04c-.18.01-.35.03-.5.04-.28.03-.5.05-.71.02-1.69-.27-3.44-.07-5.34.6-1.1.39-2.1.98-3.26,1.92l-.15.12.18.08c.99.42,1.97.62,2.99.62.75,0,1.52-.11,2.32-.33,1-.27,1.75-.88,2.54-1.52Z"/>
      <path class="cls-1" d="m101.6,113.08c-.2-.35-.4-.71-.6-1.08l-.11-.2-.1.21c-.08.17-.16.32-.22.45-.12.24-.21.43-.31.62-1.32,2.5-.98,5.42.9,7.63.19.23.33.36.48.36.01,0,.03,0,.04,0,.16-.03.25-.2.35-.48l.09-.25c.19-.5.38-1.01.49-1.54.04-.19.09-.38.13-.57.22-.92.45-1.86.06-2.79-.34-.8-.76-1.56-1.21-2.35Z"/>
      <path class="cls-1" d="m109.69,97.35l-.18-.02c-1.89-.15-4.31,1.11-5.72,2.45-.95.9-1.45,1.82-1.43,2.59v.23s.19-.14.19-.14c.8-.59,1.7-.77,2.66-.96.27-.05.55-.11.82-.17.83-.2,1.86-.57,2.43-1.66.25-.49.52-.98.78-1.46l.46-.85Z"/>
      <path class="cls-1" d="m111.38,85.36c.17-.79.32-1.53.47-2.27.32-1.71-.01-3.4-1-5.01-.1-.17-.23-.32-.37-.48-.06-.07-.13-.15-.19-.23l-.11-.13-.09.15c-1.35,2.18-1.39,4.6-.12,6.49.06.08.11.16.17.25.43.62.84,1.21.67,2.02-.01.07,0,.13.04.21.01.04.03.09.05.16l.06.21c-.11-.09-.22-.19-.33-.28-.76-.67-1.54-1.38-2.38-2.19-.17-.16-.34-.4-.33-.58,0-.53.04-1.06.07-1.58.02-.4.05-.79.06-1.19,0-.19.01-.39.02-.58.03-.85.06-1.74,0-2.6-.03-.43-.19-.84-.36-1.27-.07-.19-.15-.38-.21-.58l-.05-.15-.13.08c-.08.05-.13.08-.17.1-.08.04-.12.07-.15.12-.95,1.56-1.22,3-.83,4.41.17.63.47,1.23.76,1.81.14.28.27.55.4.83.06.14.11.28.16.42.01.03.02.07.04.1l-.06.04-10.6-12.44-.93-.24c.37.46,4.53,5.68,4.88,6.13.79,1.01,1.54,1.96,2.35,2.87.68.77,1.42,1.5,2.13,2.21.35.35.7.7,1.05,1.05l-.12-.08.03.04c-.54-.36-1.12-.69-1.81-.78-1.06-.14-2.05.14-3.13.87l-.15.11.16.1c.18.11.35.21.51.31.32.2.63.39.94.56.36.2.84.29,1.36.29.94,0,1.99-.3,2.61-.83l.05.04h0c.06.03.13.08.19.12.23.15.44.29.63.46,2.03,1.91,3.66,3.31,5.29,4.54.18.13,2.24,1.85,2.42,1.97.08.05.16.11.24.16l.15-.18c-.79-.77-3.5-3.09-4.31-3.79-.11-.09-.22-.19-.32-.28l.06-.31c.08-.39.16-.76.24-1.13Z"/>
      <path class="cls-1" d="m98.19,98.56c-.82-.62-1.79-.8-2.72-.97-.61-.11-1.24-.23-1.83-.47l-.16-.06v.17c-.03,1.14.63,1.81,1.28,2.31.91.7,2,1.03,2.93,1.25.8.19,1.61.43,2.39.65.22.06.44.13.66.19.07.08.13.16.2.24l.77.47.3-.44-.83-.39c-.1-.03-.2-.06-.3-.09-.02-.02-.03-.04-.05-.06-.22-.25-.44-.52-.62-.8-.53-.85-1.29-1.46-2.03-2.01Z"/>
      <path class="cls-1" d="m109.3,58.32l.12.07.05-.13c.09-.26.18-.52.27-.78.18-.57.38-1.15.66-1.67.92-1.65.53-3.21.13-4.85-.06-.24-.12-.48-.17-.72l-.04-.16-.14.09c-1.39.88-2.08,3.27-2.04,5.18.03,1.48.45,2.56,1.17,2.98Z"/>
      <path class="cls-1" d="m94.1,72.97c-.11-.05-.24-.07-.36-.08-.05,0-.1-.01-.14-.02l-.13-.02v.13s-.03.09-.04.14c-.02.12-.05.25-.02.37v.04c.1.48.2.98.36,1.45.65,2,1.96,3.35,3.9,4.01.42.14.84.26,1.21.36.15.04.29.08.41.11l.29.08-.15-.26c-.15-.25-.3-.5-.46-.77-.38-.63-.78-1.28-1.13-1.97-.87-1.69-2.09-2.86-3.74-3.58Z"/>
      <path class="cls-1" d="m104.47,87.1c-.72.22-1.16.56-1.28.98l-.03.1.09.04c1.11.51,2.22.7,3.33.7,1.53,0,3.05-.36,4.54-.7l.29-.07-.18-.15c-1.38-1.18-4.88-1.48-6.77-.89Z"/>
      <path class="cls-1" d="m112.83,101.92c.21.1.42.18.63.26.47.18,1.4.82,1.73,1.2.01.01.03.02.05.03l.02.03.05-.03s.05-.02.07-.04l.08-.07-.59-.62c-.33-.62-.65-1.26-.96-1.88-.88-1.77-1.78-3.59-3.17-5.17l-.13-.15-.07.19c-.32.91-.39,1.75-.22,2.62.34,1.8,1.13,2.95,2.48,3.62Z"/>
      <path class="cls-1" d="m114.7,123.01c.1-.12.21-.23.32-.34.45-.45.96-.96.68-1.9l-.14-.49-.09.5c-.15.86-.59,1.54-1.32,2.07-.38.27-.8.52-1.2.75-.14.08-.28.16-.42.25-.3.18-.63.34-.94.51-.7.36-1.41.73-1.96,1.27-.8.79-1.48,1.73-2.13,2.63-.26.36-.52.72-.79,1.07-.07.1-.08.22-.08.3l-.04.21.21-.08c.35-.14.69-.29,1.04-.44.75-.32,1.53-.65,2.31-.92,2.1-.71,3.39-2.11,3.95-4.3.09-.34.3-.71.62-1.09Z"/>
      <g>
        <path class="cls-1" d="m114.1,83.97c-.07-.02-.14-.05-.21-.09-.6-.37-1.13.13-1.24.81-.09.52.15,1.07.56,1.29.08.04.23.11.42.11.21,0,.47-.07.74-.33.27-.25.41-.55.39-.88-.01-.32-.11-.7-.43-.83-.08-.03-.16-.05-.24-.08Z"/>
        <path class="cls-1" d="m105.62,111.86c-.23-.11-.47-.21-.57-.22-.18-.02-.51.2-.65.3-.37.26-.62.65-.69,1.1-.12.72.2,1.45.75,1.76.17.09.35.14.54.14.34,0,.69-.15,1.01-.45.37-.33.55-.75.53-1.19-.01-.37-.2-.9-.47-1.17-.06-.06-.26-.17-.47-.27Z"/>
        <g>
          <path class="cls-1" d="m109.35,63.79c.35-1.24-2.05-1.18-1.83.18s1.67.59,1.87-.35"/>
          <path class="cls-1" d="m108.19,65.05h-.03c-.52-.01-.89-.4-.99-1.03-.09-.53.12-.99.58-1.26.51-.3,1.2-.29,1.62.03.28.21.41.53.36.89h.01c-.01.05-.02.1-.04.15,0,.01,0,.03-.01.05h0c-.23.65-.88,1.17-1.5,1.17Zm.37-1.8c-.15,0-.31.03-.44.12-.2.12-.28.29-.24.54.07.42.25.43.31.43.32.01.7-.31.84-.7.04-.19-.04-.25-.08-.28-.08-.07-.22-.1-.38-.1Z"/>
        </g>
        <path class="cls-1" d="m109.19,93.49c-.57-.11-1.24.08-1.55.54-.3.44-.31,1.06-.03,1.58.28.51.79.81,1.37.81h.03c.87-.01,1.36-.73,1.39-1.43.02-.37-.23-.81-.45-1.09-.18-.22-.46-.36-.75-.42Z"/>
        <path class="cls-1" d="m106.5,123.92c-.59-.1-1.26.06-1.57.52-.3.44-.31,1.06-.03,1.58.28.51.79.81,1.37.81h.03c.87-.01,1.36-.73,1.39-1.43.02-.37-.09-.75-.33-1.03-.2-.24-.52-.4-.86-.46Z"/>
        <path class="cls-1" d="m88.28,104.91c-.57-.1-1.21.06-1.53.54-.3.44-.31,1.06-.03,1.58.28.51.79.81,1.37.81h.03c.87-.02,1.36-.73,1.39-1.43.02-.39-.11-.8-.38-1.09-.21-.22-.51-.37-.85-.42Z"/>
        <path class="cls-1" d="m82.46,83.4c-.22-.02-.44,0-.67.08-.23.08-.67.25-.82.46-.3.44-.31,1.06-.03,1.58.28.51.79.81,1.37.81h.03c.87-.02,1.36-.73,1.39-1.43.04-.83-.54-1.43-1.27-1.51Z"/>
        <path class="cls-1" d="m89.98,74.78c-.26,0-.52-.01-.78,0-.36.01-.49.11-.81.27-.43.21-.78.35-1.07.77-.19.28-.41.56-.44.88-.04.37,0,.77,0,1.14,0,.58.08.86.33,1.37.18.36.37.79.66,1.07.47.46,1.42.26,2.03.26.94,0,1.74-.29,2.43-.95.64-.61.99-1.43.59-2.23-.28-.56-.63-1.22-.99-1.72-.44-.61-1.29-.7-1.96-.84Z"/>
        <path class="cls-1" d="m94.73,100.27c-.21,0-.41,0-.62,0-.29.01-.39.09-.65.21-.34.17-.63.28-.85.61-.15.22-.33.45-.35.7-.03.29,0,.61,0,.91,0,.46.06.68.26,1.09.14.29.3.63.53.85.37.37,1.13.2,1.62.2.75,0,1.38-.23,1.94-.76.51-.49.79-1.14.47-1.78-.22-.45-.51-.97-.79-1.37-.35-.48-1.03-.56-1.56-.67Z"/>
        <path class="cls-1" d="m101.04,55.48c-.22,0-.45-.01-.67,0-.31.01-.42.09-.7.23-.37.18-.68.3-.92.66-.16.24-.35.48-.38.76-.03.32,0,.66,0,.98,0,.5.07.74.29,1.18.15.31.32.68.57.92.4.4,1.23.22,1.75.22.81,0,1.49-.25,2.09-.82.55-.53.86-1.23.51-1.92-.24-.48-.55-1.05-.85-1.48-.37-.52-1.11-.6-1.68-.73Z"/>
      </g>
      <path class="cls-1" d="m97.63,112.5s-.53.02-1.27.96c0,0-.62.62-1.07.82l.08.3s.9-.52,1.74-1.13.69-.83.69-.83l-.17-.13Z"/>
      <path class="cls-1" d="m132.91,81.55c.45.27.81.75,1.02,1.11.95,1.58,1.04,3.34,1.12,5.05.01.25.03.49.04.74v.07s-.32.21-.32.21l-.07-.06c-.1-.09-.2-.17-.3-.26-.22-.19-.44-.38-.65-.58-1.38-1.35-1.57-3.19-1.64-4.81-.04-1.01-.4-1.85-.78-2.68-.05-.11-.26-.24-.44-.27-.38-.06-.77-.1-1.19-.13-.17-.01-.35-.03-.53-.05h-.76s.31-.2.31-.2c.05-.03.08-.05.11-.07.06-.04.1-.07.16-.07.1-.01.61-.04.71-.04h.09c1.2-.06,2.37.13,3.47.55.51.19,1.02.41,1.51.61.42.17.84.35,1.26.51.22.09.48.12.68.12.3,0,.6-.04.89-.06.55-.05,1.11-.1,1.65-.03,1.74.21,3.13,1.22,4.47,2.19l.17.12c.06.04.07.11.08.19,0,.04.01.08.03.14l.03.12-.11.03c-.18.04-.36.09-.53.14-.39.11-.8.22-1.21.27-1.59.19-3.09-.32-4.47-1.51-1.12-.97-2.4-1.65-3.9-2.1-.44-.13-.87-.24-1.35-.37-.16-.04-.32-.09-.49-.13,0,.02.02.03.02.05.25.52.45.94.92,1.21Z"/>
      <path class="cls-1" d="m121.46,69.31c-.38,1.7-1.72,2.63-2.84,3.26-.44.24-.74.49-.89.98-.11.35-.31.67-.5.98-.08.13-.17.27-.24.4l-.44,1.08-.18-.97.26-.29c.03-.07.06-.14.1-.21.07-.15.14-.29.18-.44.06-.21.13-.41.2-.62.17-.52.35-1.05.41-1.58.25-2.2,1.32-3.69,3.27-4.56.03-.01.06-.03.09-.05-.07-.17-.14-.34-.2-.5-.21-.53-.41-1.03-.63-1.52-.04-.09-.24-.21-.37-.22-.6-.06-1.15.14-1.7.58-.19.15-.4.28-.6.41-.09.06-.18.11-.27.17l-.8.51-.26-.43.8-.5c.21-.13.42-.26.64-.39.49-.31.99-.62,1.53-.85.56-.24,1.21-.16,1.71.21.19,0,.4.03.53.06,0,0,.02,0,.03,0,.57.04,1.11.26,1.59.68,1.08.95,1.84,2.86,1.94,4.89v.28s-3.31-2.9-3.31-2.9l-.02-.02c0,.12.01.23.02.34.02.43.04.83-.04,1.22Z"/>
      <path class="cls-1" d="m146.06,58.87c-.09.07-.18.14-.26.22-.13.13-.28.26-.42.39-.33.29-.66.59-.87.95-.5.88-.85,1.85-1.13,2.68-.56,1.65-1.34,2.79-2.46,3.58-.33.23-.68.46-1.02.67-.38.25-.78.5-1.15.77-1.06.77-2.15,1.59-2.82,2.8l.43-.02c.12,0,.25,0,.38,0,.32,0,.68,0,1.02-.08,2.3-.54,4.56-.26,6.89.85.31.15.6.34.9.54.15.1.3.2.47.3l.14.08-.12.11c-.7.61-1.41.9-2.31.93-.08,0-.16,0-.24,0-1.14,0-2.27-.26-3.38-.76-1.03-.47-2.05-.94-3.02-1.39l-1.17-.54c-.03.06-.07.11-.1.16-.07.14-.22.22-.37.29-.06.03-.11.06-.16.09l-.09.06-.26-.31.07-.08c.2-.23.4-.46.6-.69.46-.53.93-1.08,1.43-1.58.45-.45.74-.98.9-1.66.52-2.16,1.34-3.94,2.51-5.46,1.57-2.05,3.42-3.1,5.66-3.22l.36-.02-.28.23s-.09.07-.13.11Z"/>
      <path class="cls-1" d="m130.33,50.79s-.06.07-.11.09c-.05.02-.13.03-.21.03-.78-.03-1.32.37-1.62,1.19-.2.57-.33,1.18-.45,1.77l-.03.13c-.13.63-.39,1.54-1.15,2.13-.98.76-1.87,1.37-2.72,1.86-1.05.61-1.94,1.41-2.71,2.41h0c.89-.62,1.9-.88,3.12-.84h.26c1.02.06,1.97.11,2.82-.54.06-.04.12-.02.18,0,.02,0,.05.02.09.03l.13.03-.05.12c-.34.91-.99,1.61-2.01,2.14-.56.29-1.09.41-1.6.41-1.1,0-2.08-.56-2.94-1.17l-.1-.07c-.3.4-.58.82-.83,1.28-.25.44-.43.93-.61,1.4-.08.22-.17.44-.26.66l-.38,1.19-.11-.27c-.1-.24-.05-.46.01-.65.02-.06.32-1.04.35-1.1.03-.06.06-.11.07-.16.43-1.57,1.25-2.9,2.43-3.97.28-.25.59-.5.96-.76l.04-.03c.53-.37.98-.69,1.08-1.39.11-.81.32-1.66.62-2.6.66-2.05,1.92-3.33,3.76-3.81.78-.2,1.43-.13,1.98.23l.12.08-.09.1s-.04.04-.05.06Z"/>
      <path class="cls-1" d="m134.87,70.87c-.01.15-.02.31-.02.46-.01.63-.02,1.35-.89,1.81l-.45.24.3-.41c.51-.71.7-1.49.56-2.39-.07-.46-.18-.93-.3-1.38-.04-.16-.08-.32-.12-.47-.08-.34-.19-.69-.29-1.03-.23-.75-.46-1.52-.46-2.29,0-1.12.21-2.26.4-3.36.08-.44.15-.88.22-1.32.02-.12.11-.21.16-.27l.12-.18.08.21c.14.35.27.7.41,1.05.29.76.59,1.55.95,2.3.95,2,.85,3.91-.33,5.82-.18.3-.3.7-.35,1.21Z"/>
      <path class="cls-1" d="m130.78,97.87s-.04.07-.06.1l-.17.73-.17-.05-.07-.69c-.07-.33-.16-.66-.25-.99-.19-.71-.39-1.45-.44-2.19-.17-2.71.46-5.11,1.87-7.15.07-.1.16-.18.25-.26.04-.03.07-.07.11-.1l.09-.09.08.11s.07.08.11.12c.09.1.17.19.23.32.59,1.32.66,2.77.21,4.44-.36,1.33-.79,2.67-1.2,3.96-.16.5-.32,1-.47,1.5-.03.09-.08.17-.13.25Z"/>
      <path class="cls-1" d="m140.39,98.93c-.05.13-.09.26-.14.37l-.09.22-.12-.21c-1.38-2.32-.53-8.76,1.43-10.78l.14-.14.06.18c.03.09.06.17.09.24.06.15.11.29.13.43.03.21.07.43.1.64.1.64.21,1.3.23,1.95.09,2.12-.4,4.19-1.44,6.15-.16.3-.28.64-.39.93Z"/>
      <path class="cls-1" d="m131.05,98.01c.11-.08.21-.15.32-.23.24-.17.49-.34.7-.53.28-.24.48-.49.59-.72.25-.49.48-1,.71-1.5.38-.84.78-1.7,1.25-2.51.81-1.42,2-2.49,3.54-3.18.33-.15.68-.24,1.02-.34.15-.04.31-.09.46-.13l.09-.03.23.41-.1.06c-.81.48-1.14,1.27-1.42,2.03-.22.6-.39,1.14-.54,1.66-.37,1.31-1.1,2.29-2.17,2.9-.57.32-1.16.63-1.73.92-.38.19-.75.38-1.12.58-.37.2-.75.42-1.11.63-.17.1-.34.2-.51.29l-.1.06-.2-.3.09-.07Z"/>
      <path class="cls-1" d="m124.44,102.19l.18-.26c.15-.22.3-.32.46-.32h0c.18,0,.36.13.54.41,1.66,2.52,1.06,6.44-1.27,8.41-.23.19-.46.37-.67.52-.08.06-.16.12-.22.17l-.18.14v-.23c-.02-.31-.04-.65-.05-.99-.03-.85-.06-1.8-.14-2.74-.11-1.25.02-2.35.38-3.35.22-.62.61-1.19.98-1.74Z"/>
      <path class="cls-1" d="m146.74,98.04c-.47-.14-.93-.27-1.4-.4l-.31-.08s-.09.06-.13.08c-.37.27-.79.49-1.18.7-.29.16-.59.32-.87.49-.61.38-1.22.8-1.81,1.19-.25.17-.5.34-.75.5l-.72.42-.38-.22.84-.54s.1-.08.14-.11c.11-.09.22-.18.34-.26.37-.26.75-.51,1.13-.76.59-.4,1.19-.8,1.77-1.21.47-.32.64-.7.55-1.19-.06-.31-.11-.62-.17-.94-.05-.32-.11-.63-.17-.95-.24-1.21-.4-2.64.19-4.08.83-2,2.22-3.58,3.34-4.74.05-.06.12-.06.19-.06.02,0,.05,0,.08,0h.12s.01.11.01.11c.16,1.95.22,4.25-.51,6.55-.33,1.02-.84,2.29-1.94,3.09-.56.41-.69.86-.77,1.54.03-.01.06-.03.09-.04.16-.07.3-.12.42-.2l.3-.18c.44-.27.9-.54,1.31-.86.27-.2.5-.49.64-.79.21-.44.39-.91.58-1.35.3-.74.61-1.51,1.02-2.21,1.2-2.1,2.94-3.82,5.31-5.28l.14-.08.04.15c.02.06.03.11.05.16.03.09.06.16.04.24-.33,1.87-1.02,3.6-2.04,5.15-1.3,1.97-3.23,3.16-5.1,4.3-.69.42-1.4.86-2.07,1.33l.26-.12c.15-.07.29-.07.42-.08.07,0,.13,0,.2-.02h.07c.4-.09.8-.17,1.18-.31.22-.08.43-.19.64-.29.27-.14.56-.28.86-.36,1.59-.46,3.26-.36,5.12.28.51.18.99.39,1.5.62.23.1.45.2.69.3l.13.05-.07.12c-.04.06-.06.1-.08.14-.04.06-.06.1-.1.14-.08.07-.18.13-.25.17-1.07.62-2.26.93-3.59.93-.66,0-1.36-.08-2.09-.23-1.08-.22-2.15-.53-3.19-.84Z"/>
      <path class="cls-1" d="m141.18,112.96c-.57.06-1.15.07-1.72.08-1.03.01-2.09.03-3.18.35l-.62.47-.16-.2c.07-.09.77-.64.83-.71.1-.14.18-.25.27-.35,1.78-2.17,4.3-3.42,7.69-3.82.42-.05.72-.05.89.12.17.17.17.46.12.94-.02.2-.08.4-.15.58-.62,1.51-1.88,2.32-3.98,2.54Z"/>
      <path class="cls-1" d="m119.13,53.49l.13-.22.09.24c1.24,3.26,1.22,6.43-.05,9.7l-.06.16-.13-.12c-1.65-1.52-1.64-6.81.03-9.76Z"/>
      <path class="cls-1" d="m123.58,116.7c-.13-1.12-.26-2.29-1.25-3.12l-.36-.31c-.26.11-.52.22-.79.32-.55.19-1.1.39-1.67.59l-3.29,1.14.03-.2c0-.05.01-.09.02-.12,0-.05.01-.11.08-.14.51-.23,3.47-1.29,3.99-1.51,1.07-.46,2.17-.94,3.24-1.43,2.01-.91,3.43-2.2,4.34-3.92,1.05-1.99,1.5-4.19,1.91-6.12.09-.44.17-.9.25-1.34.04-.21.07-.41.11-.62l.24.03-.24-.03c-.36-1.39-1.27-2.46-2.3-3.16-.4-.27-.81-.56-1.2-.87-1.75-1.37-2.05-3.32-2.11-5.23v-.25s.43.32.43.32c.1.07.16.12.22.17,2.3,1.89,3.96,4.32,4.93,7.21.05.16.12.33.21.36.07.02.17-.02.31-.11l.27-.28-.53,1.86c-.17,4.31-1.14,7.34-3.14,9.82l7.5-5.49.23.32-7.46,5.71c2,.12,3.81.62,5.48,1.49l.25-.36c.15-.22.3-.43.46-.65.36-.51.73-1.03,1.06-1.57.18-.29.32-.6.47-.91.14-.3.28-.61.46-.9,1.08-1.79,2.75-2.75,4.98-2.87.23,0,.48,0,.61.17.09.13.09.31,0,.57-.06.16-.09.32-.12.5-.03.16-.06.32-.11.48-.69,2.15-2.86,4.31-5.7,4.31-.02,0-.05,0-.07,0-.52,0-.88.15-1.18.49-.15.17-.34.29-.51.41-.07.04-.34.46-.4.5,0,0-.11-.13-.11-.13.09-.06,1,.59,1.11.66.18.12.35.25.52.39.05.04.5.42.52.26.11.12.42.42.09.44-.04,0-.06,0-.1,0-.01,0-.08.81-.08.88,0,.35.04.71.14,1.05.16.57.45,1.09.66,1.64.36.94.5,1.96.41,2.96-.08.97-.37,1.93-.83,2.78-.06.1-.12.22-.23.26-.19.08-.4-.08-.54-.23-.75-.83-1.19-1.92-1.27-3.03-.08-1.09.19-2.18.54-3.22s.78-2.05,1.05-3.11c-.31-.02-.53-.2-.76-.4-.15-.12-.28-.24-.44-.32l-.11-.05c-.87-.4-1.77-.82-2.68-1.13-.77-.26-1.56-.48-2.34-.68-.3-.08-.61-.16-.91-.24-.58-.16-1.13-.05-1.83.38-1.23.74-2.55,1.5-3.96,2.09l.35.16c.08.04.16.08.24.12.16.09.31.17.47.21,1.37.3,2.39,1.08,3.12,2.39.91,1.64.88,3.44.77,5.13-.02.27-.05.55-.08.82-.01.12-.03.23-.04.35v.09s-.4.08-.4.08v-.14c-.02-.79-.51-1.25-1.1-1.73-1.03-.85-1.6-1.94-1.81-3.44-.03-.18-.05-.37-.07-.55Z"/>
      <path class="cls-1" d="m119.77,115.53c.19.18.39.36.59.53.44.38.89.78,1.26,1.23,1.25,1.51,1.87,3.27,1.83,5.24,0,.36-.05.63-.23.74-.05.03-.11.04-.18.04-.16,0-.35-.08-.58-.21-2.8-1.53-4.19-4.76-3.45-8.04l.05-.2.71.66Z"/>
      <path class="cls-1" d="m136.68,114.28c.12,0,.23-.01.35-.02.24,0,.49-.02.73-.05,1.56-.23,2.82-.19,3.98.13,1.6.44,2.76,1.35,3.45,2.69.13.25.16.45.09.61-.06.16-.21.29-.46.38-.58.22-1.16.32-1.73.32s-1.17-.12-1.72-.36c-1.01-.44-1.95-1.07-2.91-1.74-.47-.33-.9-.73-1.31-1.11-.18-.17-.37-.34-.56-.51l-.06-.05.08-.3h.09Z"/>
      <path class="cls-1" d="m121.47,109.41c-.29.94-.77,1.79-1.46,2.58-.33.38-.62.81-.89,1.23-.13.19-.26.39-.39.58l-.6.86.39-.97c.36-.88.49-1.84.4-3.03-.1-1.44-.13-2.54-.11-3.58.02-1.1.46-2.04,1.28-2.73.21-.18.46-.35.69-.29.18.05.32.22.45.57.63,1.68.71,3.24.24,4.79Z"/>
      <path class="cls-1" d="m132.21,70.61c-.44,1.67-1.6,2.77-2.79,3.72l-.31.25c.07.31.14.63.2.94.09.46.15.93.21,1.39.03.2.05.41.08.61v1.02s-.39.05-.39.05v-1.02c0-.05,0-.1-.01-.16,0-.11-.01-.21-.04-.31-.03-.13-.06-.27-.08-.4-.09-.5-.17-.97-.66-1.18-1.88-.83-4.39-1.75-7.12-1.44-.05,0-.11,0-.16,0-.09,0-.18,0-.29,0h-.18l.07-.16c.46-1.14,2.13-2.03,3.53-1.87,1.41.16,2.58.89,3.58,2.23.16.21.35.41.53.61.07.07.13.14.2.21l.06-.03-.02-.11c-.03-.13-.06-.26-.08-.4-.05-.29-.1-.58-.16-.87-.13-.71-.27-1.44-.29-2.16-.01-.63-.17-1.11-.52-1.53-1.64-2.01-1.68-4.83-.09-6.85.58-.74,1.22-1.24,1.96-1.54l.4-.16-.26.34c-.93,1.23-.8,2.58-.66,4.02.07.76.08,1.6,0,2.57-.03.43-.09.87-.15,1.29-.13.97-.27,1.98-.06,2.97.07.35.15.69.23,1.04.06.27.12.56.18.84l.14-.32c.06-.13.14-.24.22-.35.07-.1.14-.19.18-.28l.04-.09c.12-.25.25-.53.22-.75-.38-2.39.17-4.64,1.61-6.68.18-.26.4-.49.62-.72.1-.1.2-.21.29-.32l.07-.07.34.2v.07c-.05,1.76-.14,3.62-.61,5.41Z"/>
      <path class="cls-1" d="m141.97,102.48c-.6-.49-1.23-.99-1.97-1.34l-.57-.26.62.04c.18.01.35.03.5.04.28.03.5.05.71.02,1.69-.27,3.44-.07,5.34.6,1.1.39,2.1.98,3.26,1.92l.15.12-.18.08c-.99.42-1.97.62-2.99.62-.75,0-1.52-.11-2.32-.33-1-.27-1.75-.88-2.54-1.52Z"/>
      <path class="cls-1" d="m130.28,113.08c.2-.35.4-.71.6-1.08l.11-.2.1.21c.08.17.16.32.22.45.12.24.21.43.31.62,1.32,2.5.98,5.42-.9,7.63-.19.23-.33.36-.48.36-.01,0-.03,0-.04,0-.16-.03-.25-.2-.35-.48l-.09-.25c-.19-.5-.38-1.01-.49-1.54-.04-.19-.09-.38-.13-.57-.22-.92-.45-1.86-.06-2.79.34-.8.76-1.56,1.21-2.35Z"/>
      <path class="cls-1" d="m122.19,97.35l.18-.02c1.89-.15,4.31,1.11,5.72,2.45.95.9,1.45,1.82,1.43,2.59v.23s-.19-.14-.19-.14c-.8-.59-1.7-.77-2.66-.96-.27-.05-.55-.11-.82-.17-.83-.2-1.86-.57-2.43-1.66-.25-.49-.52-.98-.78-1.46l-.46-.85Z"/>
      <path class="cls-1" d="m120.51,85.36c-.17-.79-.32-1.53-.47-2.27-.32-1.71.01-3.4,1-5.01.1-.17.23-.32.37-.48.06-.07.13-.15.19-.23l.11-.13.09.15c1.35,2.18,1.39,4.6.12,6.49-.06.08-.11.16-.17.25-.43.62-.84,1.21-.67,2.02.01.07,0,.13-.04.21-.01.04-.03.09-.05.16l-.06.21c.11-.09.22-.19.33-.28.76-.67,1.54-1.38,2.38-2.19.17-.16.34-.4.33-.58,0-.53-.04-1.06-.07-1.58-.02-.4-.05-.79-.06-1.19,0-.19-.01-.39-.02-.58-.03-.85-.06-1.74,0-2.6.03-.43.19-.84.36-1.27.07-.19.15-.38.21-.58l.05-.15.13.08c.08.05.13.08.17.1.08.04.12.07.15.12.95,1.56,1.22,3,.83,4.41-.17.63-.47,1.23-.76,1.81-.14.28-.27.55-.4.83-.06.14-.11.28-.16.42-.01.03-.02.07-.04.1l.06.04,10.6-12.44.93-.24c-.37.46-4.53,5.68-4.88,6.13-.79,1.01-1.54,1.96-2.35,2.87-.68.77-1.42,1.5-2.13,2.21-.35.35-.7.7-1.05,1.05l.12-.08-.03.04c.54-.36,1.12-.69,1.81-.78,1.06-.14,2.05.14,3.13.87l.15.11-.16.1c-.18.11-.35.21-.51.31-.32.2-.63.39-.94.56-.36.2-.84.29-1.36.29-.94,0-1.99-.3-2.61-.83l-.05.04h0c-.06.03-.13.08-.19.12-.23.15-.44.29-.63.46-2.03,1.91-3.66,3.31-5.29,4.54-.18.13-2.24,1.85-2.42,1.97-.08.05-.16.11-.24.16l-.15-.18c.79-.77,3.5-3.09,4.31-3.79.11-.09.22-.19.32-.28l-.06-.31c-.08-.39-.16-.76-.24-1.13Z"/>
      <path class="cls-1" d="m133.69,98.56c.82-.62,1.79-.8,2.72-.97.61-.11,1.24-.23,1.83-.47l.16-.06v.17c.03,1.14-.63,1.81-1.28,2.31-.91.7-2,1.03-2.93,1.25-.8.19-1.61.43-2.39.65-.22.06-.44.13-.66.19-.07.08-.13.16-.2.24l-.77.47-.3-.44.83-.39c.1-.03.2-.06.3-.09.02-.02.03-.04.05-.06.22-.25.44-.52.62-.8.53-.85,1.29-1.46,2.03-2.01Z"/>
      <path class="cls-1" d="m122.59,58.32l-.12.07-.05-.13c-.09-.26-.18-.52-.27-.78-.18-.57-.38-1.15-.66-1.67-.92-1.65-.53-3.21-.13-4.85.06-.24.12-.48.17-.72l.04-.16.14.09c1.39.88,2.08,3.27,2.04,5.18-.03,1.48-.45,2.56-1.17,2.98Z"/>
      <path class="cls-1" d="m137.78,72.97c.11-.05.24-.07.36-.08.05,0,.1-.01.14-.02l.13-.02v.13s.03.09.04.14c.02.12.05.25.02.37v.04c-.1.48-.2.98-.36,1.45-.65,2-1.96,3.35-3.9,4.01-.42.14-.84.26-1.21.36-.15.04-.29.08-.41.11l-.29.08.15-.26c.15-.25.3-.5.46-.77.38-.63.78-1.28,1.13-1.97.87-1.69,2.09-2.86,3.74-3.58Z"/>
      <path class="cls-1" d="m127.41,87.1c.72.22,1.16.56,1.28.98l.03.1-.09.04c-1.11.51-2.22.7-3.33.7-1.53,0-3.05-.36-4.54-.7l-.29-.07.18-.15c1.38-1.18,4.88-1.48,6.77-.89Z"/>
      <path class="cls-1" d="m119.05,101.92c-.21.1-.42.18-.63.26-.47.18-1.4.82-1.73,1.2-.01.01-.03.02-.05.03l-.02.03-.05-.03s-.05-.02-.07-.04l-.08-.07.59-.62c.33-.62.65-1.26.96-1.88.88-1.77,1.78-3.59,3.17-5.17l.13-.15.07.19c.32.91.39,1.75.22,2.62-.34,1.8-1.13,2.95-2.48,3.62Z"/>
      <path class="cls-1" d="m117.19,123.01c-.1-.12-.21-.23-.32-.34-.45-.45-.96-.96-.68-1.9l.14-.49.09.5c.15.86.59,1.54,1.32,2.07.38.27.8.52,1.2.75.14.08.28.16.42.25.3.18.63.34.94.51.7.36,1.41.73,1.96,1.27.8.79,1.48,1.73,2.13,2.63.26.36.52.72.79,1.07.07.1.08.22.08.3l.04.21-.21-.08c-.35-.14-.69-.29-1.04-.44-.75-.32-1.53-.65-2.31-.92-2.1-.71-3.39-2.11-3.95-4.3-.09-.34-.3-.71-.62-1.09Z"/>
      <g>
        <path class="cls-1" d="m117.79,83.97c.07-.02.14-.05.21-.09.6-.37,1.13.13,1.24.81.09.52-.15,1.07-.56,1.29-.08.04-.23.11-.42.11-.21,0-.47-.07-.74-.33-.27-.25-.41-.55-.39-.88.01-.32.11-.7.43-.83.08-.03.16-.05.24-.08Z"/>
        <path class="cls-1" d="m126.26,111.86c.23-.11.47-.21.57-.22.18-.02.51.2.65.3.37.26.62.65.69,1.1.12.72-.2,1.45-.75,1.76-.17.09-.35.14-.54.14-.34,0-.69-.15-1.01-.45-.37-.33-.55-.75-.53-1.19.01-.37.2-.9.47-1.17.06-.06.26-.17.47-.27Z"/>
        <g>
          <path class="cls-1" d="m122.53,63.79c-.35-1.24,2.05-1.18,1.83.18s-1.67.59-1.87-.35"/>
          <path class="cls-1" d="m122.19,63.88h0s0-.03-.01-.04c-.02-.05-.03-.1-.04-.15h.01c-.04-.36.08-.68.36-.9.42-.32,1.12-.34,1.62-.03.45.27.66.73.58,1.26-.1.63-.47,1.02-.99,1.03h-.03c-.61,0-1.27-.52-1.5-1.17Zm.75-.52s-.12.09-.08.28c.14.39.52.71.84.7.06,0,.24,0,.31-.43.04-.24-.04-.42-.24-.54-.14-.08-.29-.12-.44-.12s-.29.04-.38.1Z"/>
        </g>
        <path class="cls-1" d="m122.7,93.49c.57-.11,1.24.08,1.55.54.3.44.31,1.06.03,1.58-.28.51-.79.81-1.37.81h-.03c-.87-.01-1.36-.73-1.39-1.43-.02-.37.23-.81.45-1.09.18-.22.46-.36.75-.42Z"/>
        <path class="cls-1" d="m125.38,123.92c.59-.1,1.26.06,1.57.52.3.44.31,1.06.03,1.58-.28.51-.79.81-1.37.81h-.03c-.87-.01-1.36-.73-1.39-1.43-.02-.37.09-.75.33-1.03.2-.24.52-.4.86-.46Z"/>
        <path class="cls-1" d="m143.61,104.91c.57-.1,1.21.06,1.53.54.3.44.31,1.06.03,1.58-.28.51-.79.81-1.37.81h-.03c-.87-.02-1.36-.73-1.39-1.43-.02-.39.11-.8.38-1.09.21-.22.51-.37.85-.42Z"/>
        <path class="cls-1" d="m149.42,83.4c.22-.02.44,0,.67.08.23.08.67.25.82.46.3.44.31,1.06.03,1.58-.28.51-.79.81-1.37.81h-.03c-.87-.02-1.36-.73-1.39-1.43-.04-.83.54-1.43,1.27-1.51Z"/>
        <path class="cls-1" d="m141.9,74.78c.26,0,.52-.01.78,0,.36.01.49.11.81.27.43.21.78.35,1.07.77.19.28.41.56.44.88.04.37,0,.77,0,1.14,0,.58-.08.86-.33,1.37-.18.36-.37.79-.66,1.07-.47.46-1.42.26-2.03.26-.94,0-1.74-.29-2.43-.95-.64-.61-.99-1.43-.59-2.23.28-.56.63-1.22.99-1.72.44-.61,1.29-.7,1.96-.84Z"/>
        <path class="cls-1" d="m137.15,100.27c.21,0,.41,0,.62,0,.29.01.39.09.65.21.34.17.63.28.85.61.15.22.33.45.35.7.03.29,0,.61,0,.91,0,.46-.06.68-.26,1.09-.14.29-.3.63-.53.85-.37.37-1.13.2-1.62.2-.75,0-1.38-.23-1.94-.76-.51-.49-.79-1.14-.47-1.78.22-.45.51-.97.79-1.37.35-.48,1.03-.56,1.56-.67Z"/>
        <path class="cls-1" d="m130.84,55.48c.22,0,.45-.01.67,0,.31.01.42.09.7.23.37.18.68.3.92.66.16.24.35.48.38.76.03.32,0,.66,0,.98,0,.5-.07.74-.29,1.18-.15.31-.32.68-.57.92-.4.4-1.23.22-1.75.22-.81,0-1.49-.25-2.09-.82-.55-.53-.86-1.23-.51-1.92.24-.48.55-1.05.85-1.48.37-.52,1.11-.6,1.68-.73Z"/>
      </g>
      <path class="cls-1" d="m134.26,112.5s.53.02,1.27.96c0,0,.62.62,1.07.82l-.08.3s-.9-.52-1.74-1.13-.69-.83-.69-.83l.17-.13Z"/>
    </g>
    <path class="cls-1" d="m100.72,98.38s.27.28.44.56.27.03.28.02-.22-.5-.22-.5l-.09-.17-.2-.21h-.28s.08.3.08.3Z"/>
  </g>
  <g>
    <path class="cls-1" d="m50.37,164.45c-.18-.58-.29-.66-1.08-.66h-3.97c-.66,0-.82.08-1,.63l-.92,2.76c-.39,1.18-.58,1.89-.58,2.18,0,.32.13.47.76.53l.87.08c.18.13.18.55-.05.66-.68-.05-1.5-.05-2.73-.08-.87,0-1.81.05-2.52.08-.16-.1-.21-.53-.05-.66l.87-.08c.63-.05,1.21-.34,1.58-1.29.47-1.21,1.21-2.92,2.31-5.86l2.68-7.1c.37-.95.53-1.45.45-1.87.63-.18,1.08-.66,1.37-1,.16,0,.34.05.39.24.34,1.16.76,2.37,1.16,3.52l3.6,10.57c.76,2.26,1.1,2.66,2.24,2.79l.71.08c.18.13.13.55,0,.66-1.08-.05-2-.08-3.18-.08-1.26,0-2.26.05-3.02.08-.21-.1-.24-.53-.05-.66l.76-.08c.55-.05.92-.21.92-.47,0-.29-.13-.76-.34-1.39l-1.16-3.58Zm-5.21-2.34c-.21.6-.18.63.55.63h3.23c.76,0,.82-.11.58-.82l-1.42-4.29c-.21-.63-.45-1.34-.6-1.66h-.05c-.08.13-.34.76-.63,1.55l-1.66,4.58Z"/>
    <path class="cls-1" d="m70.56,158.67c1.34-1.95,2.13-2.95,2.55-3.73.18-.32.32-.53.32-.71,0-.13-.26-.21-.95-.21h-3.92c-2.1,0-3.29.18-3.92.87-.55.6-.95,1.34-1.16,1.79-.24.1-.55.03-.66-.18.32-.92.76-2.5,1.08-3.94.11-.08.32-.08.45,0,.08.63.47.66,2.6.66h6.94c1.89,0,2.73-.03,3.02-.08.1.03.16.13.16.24-.71.6-2.97,3.66-4.31,5.63l-4.34,6.26c-.29.42-2.6,3.68-2.6,4.08,0,.26.26.32.74.37.68.05,2.05.05,3.89.05,1.68,0,3.87-.05,4.86-.6.76-.42,1.39-1.39,1.84-2.42.24-.08.58-.05.66.18-.24,1.21-.76,3.08-1.18,3.73-.71-.03-1.45-.05-2.24-.05-.79-.03-1.63-.03-2.55-.03h-6.76c-1.39,0-2.34.05-2.95.08-.11-.05-.13-.18-.13-.32.55-.53,2.05-2.39,2.87-3.58l5.68-8.07Z"/>
    <path class="cls-1" d="m94.43,164.45c-.18-.58-.29-.66-1.08-.66h-3.97c-.66,0-.82.08-1,.63l-.92,2.76c-.39,1.18-.58,1.89-.58,2.18,0,.32.13.47.76.53l.87.08c.18.13.18.55-.05.66-.68-.05-1.5-.05-2.73-.08-.87,0-1.81.05-2.52.08-.16-.1-.21-.53-.05-.66l.87-.08c.63-.05,1.21-.34,1.58-1.29.47-1.21,1.21-2.92,2.31-5.86l2.68-7.1c.37-.95.53-1.45.45-1.87.63-.18,1.08-.66,1.37-1,.16,0,.34.05.39.24.34,1.16.76,2.37,1.16,3.52l3.6,10.57c.76,2.26,1.1,2.66,2.24,2.79l.71.08c.18.13.13.55,0,.66-1.08-.05-2-.08-3.18-.08-1.26,0-2.26.05-3.02.08-.21-.1-.24-.53-.05-.66l.76-.08c.55-.05.92-.21.92-.47,0-.29-.13-.76-.34-1.39l-1.16-3.58Zm-5.21-2.34c-.21.6-.18.63.55.63h3.23c.76,0,.82-.11.58-.82l-1.42-4.29c-.21-.63-.45-1.34-.6-1.66h-.05c-.08.13-.34.76-.63,1.55l-1.66,4.58Z"/>
    <path class="cls-1" d="m112.2,162.06c-1.26,0-1.31.05-1.31.84v3.71c0,2.76.13,3.13,1.6,3.29l.76.08c.16.11.11.58-.05.66-1.42-.05-2.31-.08-3.34-.08-1.13,0-2.02.05-3.05.08-.16-.08-.21-.5-.05-.66l.45-.08c1.47-.26,1.53-.53,1.53-3.29v-9.47c0-2.76-.18-3.21-1.55-3.31l-.68-.05c-.16-.1-.1-.58.05-.66,1.29.03,2.18.08,3.31.08,1.03,0,1.92-.03,3.05-.08.16.08.21.55.05.66l-.5.05c-1.52.16-1.58.55-1.58,3.31v3.02c0,.82.05.84,1.31.84h7.52c1.26,0,1.31-.03,1.31-.84v-3.02c0-2.76-.05-3.16-1.6-3.31l-.5-.05c-.16-.1-.1-.58.05-.66,1.21.05,2.1.08,3.18.08s1.92-.03,3.1-.08c.16.08.21.55.05.66l-.55.05c-1.53.16-1.58.55-1.58,3.31v9.47c0,2.76.05,3.1,1.58,3.29l.63.08c.16.11.1.58-.05.66-1.26-.05-2.16-.08-3.18-.08-1.08,0-2.02.03-3.18.08-.16-.08-.21-.5-.05-.66l.5-.08c1.6-.21,1.55-.53,1.6-3.29v-3.71c0-.79-.05-.84-1.31-.84h-7.52Z"/>
    <path class="cls-1" d="m142.51,164.45c-.18-.58-.29-.66-1.08-.66h-3.97c-.66,0-.82.08-1,.63l-.92,2.76c-.39,1.18-.58,1.89-.58,2.18,0,.32.13.47.76.53l.87.08c.18.13.18.55-.05.66-.68-.05-1.5-.05-2.73-.08-.87,0-1.81.05-2.52.08-.16-.1-.21-.53-.05-.66l.87-.08c.63-.05,1.21-.34,1.58-1.29.47-1.21,1.21-2.92,2.31-5.86l2.68-7.1c.37-.95.53-1.45.45-1.87.63-.18,1.08-.66,1.37-1,.16,0,.34.05.39.24.34,1.16.76,2.37,1.16,3.52l3.6,10.57c.76,2.26,1.1,2.66,2.24,2.79l.71.08c.18.13.13.55,0,.66-1.08-.05-2-.08-3.18-.08-1.26,0-2.26.05-3.02.08-.21-.1-.24-.53-.05-.66l.76-.08c.55-.05.92-.21.92-.47,0-.29-.13-.76-.34-1.39l-1.16-3.58Zm-5.21-2.34c-.21.6-.18.63.55.63h3.23c.76,0,.81-.11.58-.82l-1.42-4.29c-.21-.63-.45-1.34-.6-1.66h-.05c-.08.13-.34.76-.63,1.55l-1.66,4.58Z"/>
    <path class="cls-1" d="m156.82,157.17c0-2.5-.08-2.95-1.16-3.08l-.84-.1c-.18-.13-.18-.55.03-.66,1.47-.13,3.29-.21,5.86-.21,1.63,0,3.18.13,4.39.79,1.26.66,2.18,1.84,2.18,3.68,0,2.5-1.97,3.87-3.29,4.39-.13.16,0,.42.13.63,2.1,3.39,3.5,5.5,5.29,7,.45.39,1.11.68,1.81.74.13.05.16.26.03.37-.24.08-.66.13-1.16.13-2.23,0-3.58-.66-5.44-3.31-.68-.97-1.76-2.79-2.58-3.97-.4-.58-.82-.84-1.87-.84-1.18,0-1.24.03-1.24.58v3.31c0,2.76.05,3.08,1.58,3.29l.55.08c.16.13.1.58-.05.66-1.18-.05-2.08-.08-3.13-.08-1.1,0-2.05.03-3.29.08-.16-.08-.21-.47-.05-.66l.66-.08c1.53-.18,1.58-.53,1.58-3.29v-9.44Zm2.16,3.76c0,.47,0,.76.08.87.08.08.47.13,1.81.13.95,0,1.95-.1,2.71-.68.71-.55,1.31-1.47,1.31-3.26,0-2.08-1.29-4.05-4.21-4.05-1.63,0-1.71.1-1.71.84v6.15Z"/>
    <path class="cls-1" d="m186.37,164.45c-.18-.58-.29-.66-1.08-.66h-3.97c-.66,0-.82.08-1,.63l-.92,2.76c-.39,1.18-.58,1.89-.58,2.18,0,.32.13.47.76.53l.87.08c.18.13.18.55-.05.66-.68-.05-1.5-.05-2.73-.08-.87,0-1.81.05-2.52.08-.16-.1-.21-.53-.05-.66l.87-.08c.63-.05,1.21-.34,1.58-1.29.47-1.21,1.21-2.92,2.31-5.86l2.68-7.1c.37-.95.53-1.45.45-1.87.63-.18,1.08-.66,1.37-1,.16,0,.34.05.39.24.34,1.16.76,2.37,1.16,3.52l3.6,10.57c.76,2.26,1.1,2.66,2.24,2.79l.71.08c.18.13.13.55,0,.66-1.08-.05-2-.08-3.18-.08-1.26,0-2.26.05-3.02.08-.21-.1-.24-.53-.05-.66l.76-.08c.55-.05.92-.21.92-.47,0-.29-.13-.76-.34-1.39l-1.16-3.58Zm-5.21-2.34c-.21.6-.18.63.55.63h3.23c.76,0,.81-.11.58-.82l-1.42-4.29c-.21-.63-.45-1.34-.6-1.66h-.05c-.08.13-.34.76-.63,1.55l-1.66,4.58Z"/>
  </g>
  <g>
    <path class="cls-1" d="m53.42,186.86l1.3,1.35c.58.6.87,1.21.87,1.81,0,.56-.23,1.02-.68,1.37s-1.05.52-1.79.52-1.24-.08-1.42-.23c-.08-.07-.16-.25-.25-.54-.08-.29-.12-.54-.12-.75,0-.13.04-.2.13-.2.06,0,.1.05.14.15.13.38.36.69.69.91.33.23.69.34,1.11.34s.78-.12,1.06-.37c.28-.25.42-.56.42-.94,0-.21-.05-.41-.15-.6-.1-.19-.28-.43-.55-.71l-1.28-1.39c-.38-.41-.64-.76-.78-1.05-.14-.29-.21-.61-.21-.98,0-.46.16-.84.49-1.14.32-.3.73-.45,1.23-.45.3,0,.71.09,1.22.26.15.05.23.07.25.07.04,0,.1-.03.18-.08.04-.03.08-.04.12-.05.1,0,.14.11.14.33v.19l.12,1.09c0,.12-.04.17-.15.17-.09,0-.16-.09-.2-.26-.12-.42-.34-.77-.67-1.04-.33-.28-.69-.42-1.08-.42-.28,0-.51.09-.69.28-.18.18-.27.42-.27.71,0,.5.27,1.04.82,1.61Z"/>
    <path class="cls-1" d="m58.07,187.3c.36-.06.64-.09.84-.09.58,0,1.04.14,1.38.41.34.28.51.65.51,1.12,0,.42-.1.85-.31,1.28-.2.44-.47.8-.8,1.09-.49.43-1.02.65-1.6.65-.12,0-.21,0-.27-.02-.08-.01-.13-.02-.16-.02-.09,0-.13.05-.15.14l-.02.13-.1.85s-.01.11-.01.19c0,.15.03.25.1.3.07.05.22.09.44.12l.17.03c.11.02.17.06.17.12,0,.1-.07.16-.22.16-.09,0-.18,0-.27-.02l-.1-.02c-.12-.02-.3-.03-.52-.03s-.4,0-.52.03l-.12.02c-.07,0-.12.01-.16.01-.15,0-.23-.05-.23-.16,0-.06.05-.1.15-.13.18-.04.29-.09.33-.16.05-.07.09-.25.12-.52l.62-5.05c-.15.04-.28.09-.38.12l-.16.07-.07.02s-.06.02-.08.02c-.04,0-.06-.02-.06-.06v-.05s.03-.08.03-.08c.01-.04.07-.07.16-.1.03-.01.11-.05.25-.1.06-.02.13-.05.22-.08l.14-.05.03-.23c.07-.56.16-.94.26-1.13.11-.19.29-.29.54-.29.08,0,.12.03.12.1,0,.04-.02.13-.07.26-.07.21-.12.42-.15.62l-.06.5Zm-.04.3l-.42,3.39c0,.07-.01.14-.01.2,0,.19.16.29.48.29.53,0,.99-.25,1.37-.75.38-.5.57-1.1.57-1.8,0-.44-.13-.78-.39-1.02-.26-.24-.64-.36-1.12-.36-.13,0-.29.02-.48.05Z"/>
    <path class="cls-1" d="m62.1,189.49l.24-1.4c.02-.1.03-.19.03-.28,0-.15-.11-.22-.33-.22h-.3c-.17,0-.25-.04-.24-.12,0-.09.08-.13.24-.13.34,0,.68-.03,1-.1.12-.02.22-.03.29-.03.08,0,.12.05.12.14v.06s-.32,1.56-.32,1.56c-.16.77-.23,1.36-.23,1.76,0,.22.06.34.17.35.17.01.34-.14.5-.47.04-.09.09-.13.14-.13.06,0,.09.04.08.12-.02.24-.16.51-.43.8-.27.29-.52.44-.73.44-.11,0-.2-.08-.28-.25-.07-.17-.11-.38-.11-.64,0-.3.06-.78.17-1.45Zm.97-4.58s.07.04.1.1c.06.12.1.18.11.2l.12.19s.05.09.05.11c0,.03-.03.08-.09.13-.08.08-.18.2-.3.34-.05.06-.09.09-.12.09-.05,0-.09-.04-.12-.11-.08-.17-.15-.29-.21-.37-.03-.05-.05-.09-.05-.12,0-.04.02-.08.06-.12l.16-.16s.07-.08.15-.19c.06-.07.1-.1.14-.1Z"/>
    <path class="cls-1" d="m65.7,188.37c.41-.77.85-1.16,1.31-1.16.26,0,.39.09.39.27,0,.05-.01.1-.03.17-.03.08-.04.13-.05.16l-.07.27c-.03.12-.08.19-.17.19-.05,0-.09-.04-.12-.12-.09-.21-.22-.32-.4-.32s-.33.19-.45.58c-.13.38-.24.99-.34,1.83l-.16,1.32v.06c-.02.15-.14.22-.36.22-.2,0-.3-.06-.3-.18,0-.03,0-.06,0-.1l.28-2.21c.02-.12.02-.27.02-.45,0-.56-.13-.83-.38-.83-.11,0-.22.06-.31.19-.09.12-.15.28-.18.46-.02.14-.06.22-.14.22-.09,0-.13-.09-.13-.27,0-.38.1-.7.29-.95.09-.12.2-.22.33-.32.13-.09.24-.14.31-.14.24,0,.46.37.65,1.12Z"/>
    <path class="cls-1" d="m68.29,189.49l.24-1.4c.02-.1.03-.19.03-.28,0-.15-.11-.22-.33-.22h-.3c-.17,0-.25-.04-.24-.12,0-.09.08-.13.24-.13.34,0,.68-.03,1-.1.12-.02.22-.03.29-.03.08,0,.12.05.12.14v.06s-.32,1.56-.32,1.56c-.16.77-.23,1.36-.23,1.76,0,.22.06.34.17.35.17.01.34-.14.5-.47.04-.09.09-.13.14-.13.06,0,.09.04.08.12-.02.24-.16.51-.43.8-.27.29-.52.44-.73.44-.11,0-.2-.08-.28-.25-.07-.17-.11-.38-.11-.64,0-.3.06-.78.17-1.45Zm.97-4.58s.07.04.1.1c.06.12.1.18.11.2l.12.19s.05.09.05.11c0,.03-.03.08-.09.13-.08.08-.18.2-.3.34-.05.06-.09.09-.12.09-.05,0-.09-.04-.12-.11-.08-.17-.15-.29-.21-.37-.03-.05-.05-.09-.05-.12,0-.04.02-.08.06-.12l.16-.16s.07-.08.15-.19c.06-.07.1-.1.14-.1Z"/>
    <path class="cls-1" d="m71.97,187.93l-.29,2.28c-.01.11-.02.22-.02.34,0,.18.05.33.14.45.09.12.2.18.34.18.24,0,.49-.14.75-.42.07-.07.13-.11.18-.11.06,0,.09.03.09.09,0,.21-.17.44-.52.7s-.66.4-.93.4c-.21,0-.39-.1-.52-.3s-.2-.46-.2-.78c0-.15.01-.33.04-.56l.26-2.15c.01-.09.02-.16.03-.21,0-.03,0-.05,0-.07,0-.08-.07-.12-.19-.12h-.32c-.09,0-.13-.03-.13-.1,0-.08.08-.16.24-.24.41-.22.74-.53.98-.91.06-.1.12-.15.19-.15.08,0,.13.04.13.11,0,.04-.01.09-.03.16,0,.03-.03.1-.06.21l-.04.19-.03.15s-.01.06-.01.08c0,.09.08.14.23.14h.05l.77-.02c.13,0,.19.05.19.15,0,.16-.1.25-.29.25l-.67-.03h-.08c-.11,0-.18.02-.21.06-.04.04-.06.12-.08.25Z"/>
    <path class="cls-1" d="m76.95,189.48c-.48.74-.85,1.25-1.12,1.53-.2.21-.43.39-.68.55-.25.16-.45.24-.59.24-.12,0-.22-.06-.29-.19-.07-.13-.11-.29-.11-.49,0-.3.05-.69.14-1.16l.23-1.17c.06-.29.08-.49.08-.61,0-.14-.04-.22-.12-.22-.07,0-.16.05-.26.16-.1.11-.18.24-.24.39-.06.13-.12.19-.18.19-.07,0-.11-.04-.11-.13,0-.3.13-.6.38-.91s.51-.46.77-.46c.3,0,.44.24.44.71,0,.12-.01.25-.03.38l-.31,1.95c0,.06-.02.16-.04.28l-.03.25c0,.06-.01.11-.01.16,0,.16.06.24.17.24.12,0,.31-.13.56-.38s.51-.57.77-.96c.47-.69.82-1.44,1.03-2.25.04-.14.08-.23.12-.27.04-.04.11-.06.22-.06.2,0,.3.08.3.23,0,.04,0,.09-.02.14l-.28,1.31c-.18.85-.28,1.48-.28,1.9,0,.18.07.28.23.28.22,0,.44-.21.66-.63.05-.09.1-.14.16-.14.08,0,.11.04.11.12,0,.27-.17.57-.52.89-.35.32-.67.48-.97.48-.26,0-.38-.2-.38-.59,0-.3.03-.65.1-1.06l.06-.32c.01-.06.03-.19.05-.37Z"/>
    <path class="cls-1" d="m82.03,190.59c-.65.85-1.32,1.28-2.01,1.28-.27,0-.5-.11-.67-.32-.17-.21-.26-.48-.26-.82,0-.44.11-.92.32-1.42s.48-.93.82-1.3c.5-.54,1.02-.81,1.57-.81.19,0,.4.04.63.11.08.03.15.04.2.04.11,0,.24-.13.41-.39.08-.13.14-.19.19-.19.05,0,.07.04.07.11,0,.03,0,.06-.02.1,0,.03-.03.13-.07.32l-.13.61c-.08.35-.16.81-.23,1.36s-.11.93-.11,1.13c0,.47.07.7.22.7.07,0,.17-.06.29-.19s.21-.26.27-.4c.05-.12.11-.19.17-.19.06,0,.1.04.1.12,0,.24-.15.52-.45.86-.3.33-.55.5-.76.5-.15,0-.26-.08-.33-.25s-.14-.49-.2-.98Zm-.24-3.13c-.4,0-.78.23-1.14.68-.24.3-.44.67-.6,1.12-.17.45-.25.86-.25,1.21,0,.56.25.84.75.84.32,0,.64-.17.97-.51.33-.34.52-.7.57-1.08.03-.21.06-.39.09-.53l.1-.51c.06-.28.11-.47.13-.57.03-.1.04-.2.04-.28,0-.09-.07-.18-.21-.26-.14-.08-.29-.12-.46-.12Z"/>
    <path class="cls-1" d="m84.76,190.4l.7-5.74c.02-.16.03-.26.03-.3,0-.13-.1-.2-.32-.2h-.29c-.15,0-.23-.04-.23-.11,0-.09.08-.13.22-.13.43-.02.75-.05.94-.1.11-.02.19-.03.26-.03.07,0,.11.04.11.13v.07s-.79,6.53-.79,6.53c-.02.14-.03.24-.03.3,0,.21.07.32.21.32.12,0,.26-.06.4-.19.14-.13.27-.3.38-.5.04-.08.09-.12.13-.12.08,0,.12.04.12.12,0,.06-.05.17-.14.33-.09.17-.18.31-.27.42-.14.18-.31.32-.5.45-.19.12-.35.18-.49.18-.32,0-.49-.31-.49-.92,0-.15.01-.33.03-.51Z"/>
    <path class="cls-1" d="m90.8,190.75l.66-5.47c.02-.14.03-.25.03-.34,0-.33-.18-.54-.53-.6-.21-.04-.32-.09-.32-.16,0-.08.06-.12.17-.12s.27.01.45.03c.36.03,1.06.05,2.1.05.98,0,1.7-.02,2.15-.06.21-.02.36-.02.45-.02.1,0,.16.05.16.14v.55s.01.85.01.85c0,.12-.04.18-.13.18s-.14-.08-.15-.23c-.02-.41-.14-.68-.34-.8-.2-.12-.65-.18-1.33-.18h-.45l-1.01-.02c-.16,0-.26.02-.3.06s-.08.14-.1.31l-.3,2.45s-.01.09-.01.11c0,.08.08.12.24.12h1.57c.51,0,.82-.23.93-.69.03-.09.07-.14.13-.14.08,0,.12.04.12.14,0,.13-.02.31-.07.54-.05.28-.09.61-.11,1-.02.28-.03.46-.05.54-.02.08-.06.12-.12.12-.07,0-.11-.05-.11-.15v-.25c-.01-.41-.3-.62-.89-.62h-1.34c-.17,0-.28.01-.32.04s-.06.1-.08.22l-.3,2.41s0,.09,0,.13c0,.18.06.3.17.36.11.06.36.09.73.09,1.65,0,2.68-.3,3.07-.9.09-.14.17-.21.23-.21.07,0,.11.04.11.12,0,.12-.06.28-.18.5-.12.22-.25.41-.4.58-.15.17-.3.27-.45.33-.14.05-.38.08-.71.08-.16,0-.48-.02-.98-.05-.36-.02-.72-.03-1.06-.03-.39,0-.75.01-1.08.04-.33.03-.59.04-.78.04-.14,0-.21-.04-.21-.12,0-.06.07-.11.2-.14.2-.05.33-.12.39-.21.06-.09.11-.29.15-.61Z"/>
    <path class="cls-1" d="m99.47,188.13l-.33-.34c-.18-.18-.37-.28-.57-.28-.4,0-.73.21-.99.64s-.4.95-.4,1.58c0,.5.11.9.33,1.17.22.28.53.42.93.42s.75-.13,1.04-.39l.21-.18s.06-.05.1-.05c.05,0,.07.02.07.07,0,.09-.08.23-.25.41-.42.47-.97.7-1.62.7-.47,0-.83-.15-1.09-.45-.26-.3-.39-.73-.39-1.27,0-.77.24-1.46.72-2.07.48-.6,1.03-.91,1.64-.91.3,0,.57.07.8.2.23.13.34.29.34.47,0,.1-.03.2-.1.27-.07.08-.15.12-.24.12-.07,0-.14-.04-.21-.11Z"/>
    <path class="cls-1" d="m102.78,187.17c.5,0,.9.17,1.19.5.3.33.44.78.44,1.34,0,.79-.22,1.47-.66,2.03s-.98.84-1.61.84c-.48,0-.86-.18-1.16-.53s-.45-.81-.45-1.38c0-.42.09-.84.26-1.26.17-.43.4-.76.67-1.01.37-.34.81-.51,1.32-.51Zm.01.28c-.43,0-.79.24-1.08.73-.29.48-.43,1.08-.43,1.8,0,1.05.32,1.57.96,1.57.39,0,.72-.26,1-.77.28-.52.42-1.13.42-1.85,0-.98-.29-1.47-.87-1.47Z"/>
    <path class="cls-1" d="m105.5,190.4l.7-5.74c.02-.16.03-.26.03-.3,0-.13-.1-.2-.32-.2h-.29c-.15,0-.23-.04-.23-.11,0-.09.08-.13.22-.13.43-.02.75-.05.94-.1.11-.02.19-.03.26-.03.07,0,.11.04.11.13v.07s-.79,6.53-.79,6.53c-.02.14-.03.24-.03.3,0,.21.07.32.21.32.12,0,.26-.06.4-.19.14-.13.27-.3.38-.5.04-.08.09-.12.13-.12.08,0,.12.04.12.12,0,.06-.05.17-.14.33-.09.17-.18.31-.27.42-.14.18-.31.32-.5.45-.19.12-.35.18-.49.18-.32,0-.49-.31-.49-.92,0-.15.01-.33.03-.51Z"/>
    <path class="cls-1" d="m109.99,187.17c.5,0,.9.17,1.19.5.3.33.44.78.44,1.34,0,.79-.22,1.47-.66,2.03s-.98.84-1.61.84c-.48,0-.86-.18-1.16-.53s-.45-.81-.45-1.38c0-.42.09-.84.26-1.26.17-.43.4-.76.67-1.01.37-.34.81-.51,1.32-.51Zm.01.28c-.43,0-.79.24-1.08.73-.29.48-.43,1.08-.43,1.8,0,1.05.32,1.57.96,1.57.39,0,.72-.26,1-.77.28-.52.42-1.13.42-1.85,0-.98-.29-1.47-.87-1.47Z"/>
    <path class="cls-1" d="m115.19,187.57c.2.38.3.73.3,1.05,0,.5-.15.93-.44,1.28-.3.35-.66.53-1.08.53-.15,0-.32-.03-.5-.09-.05-.02-.09-.02-.11-.02-.16,0-.24.11-.24.33,0,.28.23.49.7.63l.89.29c.71.23,1.06.59,1.06,1.09,0,.33-.16.6-.47.79s-.72.3-1.23.3c-.63,0-1.15-.12-1.54-.36s-.58-.56-.58-.95c0-.28.09-.51.26-.7.18-.18.42-.29.74-.34-.12-.16-.18-.35-.18-.56s.1-.41.29-.58c.03-.03.05-.05.05-.07l-.04-.08c-.28-.33-.42-.73-.42-1.21s.15-.88.45-1.23.65-.52,1.04-.52c.13,0,.32.03.57.1.23.06.4.09.52.09.18,0,.33-.03.47-.08l.25-.1c.06-.02.11-.03.16-.03.05,0,.1.03.15.08.05.05.07.1.07.16,0,.1-.04.18-.12.25-.09.07-.19.1-.31.1-.17,0-.41-.05-.71-.16Zm-2.12,4c-.2.05-.35.13-.46.27-.11.13-.17.3-.17.49,0,.34.14.62.42.84s.64.33,1.07.33c.38,0,.68-.06.9-.18.23-.12.34-.28.34-.47,0-.28-.26-.51-.78-.7l-.73-.27c-.23-.09-.43-.19-.59-.32Zm1.07-4.18c-.25,0-.46.15-.63.46-.16.31-.25.7-.25,1.17,0,.36.07.64.2.86.13.21.31.32.53.32.26,0,.48-.15.65-.45.17-.3.26-.69.26-1.16,0-.35-.07-.64-.21-.86-.14-.22-.32-.33-.55-.33Z"/>
    <path class="cls-1" d="m118.89,190.35c.23-.72.35-1.35.35-1.88,0-.18-.04-.36-.13-.54-.08-.15-.11-.28-.11-.37,0-.23.1-.34.29-.34.12,0,.22.06.29.19.08.13.12.29.12.5,0,.31-.08.81-.23,1.51-.16.7-.32,1.29-.49,1.76-.32.88-.65,1.53-1,1.95-.35.42-.73.63-1.15.63-.18,0-.35-.06-.49-.17-.14-.11-.21-.24-.21-.38,0-.23.1-.34.29-.34.1,0,.22.05.36.15.16.12.29.17.39.17.29,0,.6-.27.94-.81.26-.41.38-.73.38-.97,0-.14-.07-.41-.2-.8s-.29-.78-.46-1.15c-.43-.95-.79-1.43-1.07-1.43-.25,0-.41.17-.48.51l-.04.18c-.01.06-.04.1-.1.1-.07,0-.11-.08-.11-.25,0-.36.08-.67.24-.92.16-.26.36-.38.58-.38s.5.2.79.59.59.95.88,1.65l.35.85Z"/>
    <path class="cls-1" d="m127.66,183.98c1.04,0,1.9.35,2.58,1.05.68.7,1.02,1.58,1.02,2.64,0,.93-.24,1.78-.72,2.54-.71,1.13-1.8,1.69-3.26,1.69-1.11,0-2-.32-2.65-.97-.66-.64-.98-1.51-.98-2.6,0-1.21.39-2.23,1.17-3.08.78-.85,1.73-1.27,2.83-1.27Zm-.15.3c-.85,0-1.55.37-2.11,1.1-.56.74-.85,1.65-.85,2.76,0,1,.27,1.82.8,2.47s1.21.97,2.03.97c.87,0,1.58-.37,2.13-1.12s.83-1.71.83-2.89-.33-2.02-1-2.59c-.55-.46-1.16-.69-1.83-.69Z"/>
    <path class="cls-1" d="m132.93,187.64h-.74c-.18,0-.28-.05-.28-.16,0-.15.11-.23.32-.23h.75l.02-.15c.18-1.03.5-1.85.97-2.47.19-.26.37-.43.55-.54.17-.1.38-.15.62-.15.15,0,.25.02.31.05s.09.1.09.19c0,.47-.05.7-.14.7-.03,0-.07-.02-.1-.06l-.14-.15c-.13-.16-.3-.24-.51-.24s-.39.2-.55.61c-.16.41-.31,1.07-.45,1.98l-.03.21h.85c.18,0,.27.05.27.15,0,.16-.11.23-.32.23h-.86l-.52,4.19c-.07.63-.25,1.09-.53,1.38-.32.34-.63.51-.95.51-.19,0-.29-.08-.29-.23,0-.14.03-.3.1-.48.07-.17.13-.26.18-.26.05,0,.08.04.09.13.05.26.14.39.29.39.19,0,.31-.26.38-.77l.04-.38.32-2.58c.08-.64.16-1.27.25-1.89Z"/>
    <path class="cls-1" d="m142.27,189h-2.33c-.18,0-.29,0-.34.03-.05.02-.09.07-.13.16l-.72,1.44c-.11.23-.17.41-.17.54,0,.19.13.32.39.37.25.05.38.12.37.19,0,.06-.06.08-.17.08-.04,0-.09,0-.15-.01-.21-.03-.45-.05-.72-.05-.25,0-.49.01-.74.04-.08.01-.14.02-.19.02-.12,0-.17-.04-.17-.11s.06-.13.17-.16l.22-.06c.2-.05.37-.24.52-.55l.18-.38,3.23-6.29c.07-.13.14-.2.22-.2s.13.07.18.2l1.84,5.86.16.48c.12.37.21.6.28.7.07.1.21.18.41.24.11.03.16.08.16.14,0,.09-.08.13-.23.13-.04,0-.09,0-.15-.01-.22-.03-.47-.05-.74-.05-.24,0-.44,0-.6.03l-.15.02c-.08.01-.13.02-.16.02-.15,0-.23-.04-.23-.12,0-.06.09-.11.26-.16.28-.07.43-.21.43-.43,0-.15-.03-.31-.09-.49l-.39-1.23-.06-.19c-.03-.1-.07-.16-.11-.18s-.14-.03-.29-.03Zm.02-.96l-.74-2.33c-.03-.09-.04-.15-.05-.19-.02-.08-.05-.12-.09-.12-.02,0-.05.05-.09.13-.02.05-.05.11-.08.17l-1.32,2.54-.06.11s-.02.06-.02.09c0,.04.03.06.1.06h2.1c.23,0,.35-.04.35-.13,0-.03-.01-.08-.04-.14-.02-.05-.04-.12-.07-.2Z"/>
    <path class="cls-1" d="m145.53,190.4l.7-5.74c.02-.16.03-.26.03-.3,0-.13-.1-.2-.32-.2h-.29c-.15,0-.23-.04-.22-.11,0-.09.08-.13.22-.13.43-.02.75-.05.94-.1.11-.02.19-.03.26-.03.07,0,.11.04.11.13v.07s-.8,6.53-.8,6.53c-.02.14-.03.24-.03.3,0,.21.07.32.21.32.12,0,.26-.06.4-.19.14-.13.27-.3.38-.5.04-.08.09-.12.13-.12.08,0,.11.04.11.12,0,.06-.05.17-.14.33-.09.17-.18.31-.28.42-.14.18-.31.32-.5.45-.19.12-.35.18-.49.18-.32,0-.49-.31-.49-.92,0-.15.01-.33.03-.51Z"/>
    <path class="cls-1" d="m149.14,188.93c.06.01.08.06.08.16,0,.17-.02.29-.07.36s-.14.12-.29.16c-.39.09-.8.23-1.24.42-.06.02-.1.03-.14.03-.07,0-.11-.07-.11-.21,0-.19.03-.31.09-.36.06-.06.24-.12.54-.19.4-.1.71-.2.92-.31.1-.05.17-.07.21-.06Z"/>
    <path class="cls-1" d="m154.2,189h-2.33c-.18,0-.29,0-.34.03-.05.02-.09.07-.13.16l-.72,1.44c-.11.23-.17.41-.17.54,0,.19.13.32.39.37.25.05.38.12.37.19,0,.06-.06.08-.17.08-.04,0-.09,0-.15-.01-.21-.03-.45-.05-.72-.05-.25,0-.49.01-.74.04-.08.01-.14.02-.19.02-.12,0-.17-.04-.17-.11s.06-.13.17-.16l.22-.06c.2-.05.37-.24.52-.55l.18-.38,3.23-6.29c.07-.13.14-.2.22-.2s.13.07.18.2l1.84,5.86.16.48c.12.37.21.6.28.7.07.1.21.18.41.24.11.03.16.08.16.14,0,.09-.08.13-.23.13-.04,0-.09,0-.15-.01-.22-.03-.47-.05-.74-.05-.24,0-.44,0-.6.03l-.15.02c-.08.01-.13.02-.16.02-.15,0-.23-.04-.23-.12,0-.06.09-.11.26-.16.28-.07.43-.21.43-.43,0-.15-.03-.31-.09-.49l-.39-1.23-.06-.19c-.03-.1-.07-.16-.11-.18s-.14-.03-.29-.03Zm.02-.96l-.74-2.33c-.03-.09-.04-.15-.05-.19-.02-.08-.05-.12-.09-.12-.02,0-.05.05-.09.13-.02.05-.05.11-.08.17l-1.32,2.54-.06.11s-.02.06-.02.09c0,.04.03.06.1.06h2.1c.23,0,.35-.04.35-.13,0-.03-.01-.08-.04-.14-.02-.05-.04-.12-.07-.2Z"/>
    <path class="cls-1" d="m158.53,188.33c.26-.35.54-.62.87-.82.32-.2.63-.3.92-.3.23,0,.43.12.58.36.16.24.23.54.23.91,0,.21-.01.48-.04.81l-.13,1.47s0,.07,0,.11c0,.2.05.29.16.29.19,0,.37-.13.54-.38.07-.11.14-.17.2-.17.07,0,.1.04.1.11-.01.2-.17.44-.48.71-.3.27-.57.41-.78.41-.27,0-.4-.25-.4-.74,0-.11,0-.27.02-.46l.14-1.73c0-.07.01-.16.01-.25,0-.29-.06-.53-.17-.7s-.26-.26-.44-.26c-.32,0-.59.19-.83.58-.23.39-.39.91-.47,1.57l-.22,1.7c-.01.11-.04.19-.1.22-.05.04-.15.06-.29.06-.19,0-.28-.06-.28-.18v-.1s.19-1.46.19-1.46c.03-.23.05-.45.08-.67.05-.39.08-.68.08-.88,0-.37-.09-.55-.25-.55-.06,0-.14.05-.23.14s-.15.19-.19.31c-.05.14-.1.21-.16.21-.07,0-.11-.05-.11-.16,0-.25.11-.53.34-.82s.44-.43.64-.43c.14,0,.25.08.33.24.09.16.13.37.13.63v.23Z"/>
    <path class="cls-1" d="m165.2,190.7c-.42.78-.95,1.17-1.6,1.17-.36,0-.64-.13-.85-.39-.2-.26-.31-.62-.31-1.07,0-.8.26-1.53.77-2.19.51-.66,1.07-1,1.69-1,.2,0,.43.07.71.2l.34-2.76c.02-.15.03-.25.03-.31,0-.13-.1-.19-.3-.19h-.28c-.15,0-.22-.04-.22-.11,0-.08.08-.13.22-.13.43-.03.74-.06.92-.1.11-.02.19-.03.26-.03.07,0,.11.04.11.13,0,.03,0,.05,0,.07l-.75,6.15c-.03.23-.04.42-.04.56,0,.33.09.5.27.5.2,0,.4-.16.6-.48l.1-.17c.04-.06.08-.09.12-.09.06,0,.08.03.08.09,0,.17-.1.4-.31.68-.28.39-.58.58-.9.58-.2,0-.34-.06-.42-.18-.08-.12-.14-.34-.19-.67,0-.06-.02-.15-.03-.26Zm.14-1.19l.18-1.44c0-.06.01-.11.01-.15,0-.3-.23-.46-.68-.46-.35,0-.69.19-1.01.56-.21.26-.39.6-.54,1.01s-.22.8-.22,1.17c0,.34.08.62.23.82s.35.31.61.31c.36,0,.68-.17.95-.51.23-.29.39-.72.46-1.3Z"/>
    <path class="cls-1" d="m170.34,190.59c-.65.85-1.32,1.28-2.01,1.28-.27,0-.5-.11-.67-.32-.17-.21-.26-.48-.26-.82,0-.44.11-.92.32-1.42s.48-.93.82-1.3c.5-.54,1.02-.81,1.57-.81.19,0,.4.04.63.11.08.03.15.04.2.04.11,0,.24-.13.41-.39.08-.13.14-.19.19-.19.05,0,.07.04.07.11,0,.03,0,.06-.02.1,0,.03-.03.13-.07.32l-.13.61c-.08.35-.16.81-.23,1.36s-.11.93-.11,1.13c0,.47.07.7.22.7.07,0,.17-.06.29-.19.12-.12.21-.26.27-.4.05-.12.11-.19.17-.19.06,0,.1.04.1.12,0,.24-.15.52-.45.86-.3.33-.55.5-.76.5-.15,0-.26-.08-.33-.25-.07-.17-.14-.49-.2-.98Zm-.24-3.13c-.4,0-.78.23-1.14.68-.24.3-.44.67-.6,1.12-.17.45-.25.86-.25,1.21,0,.56.25.84.75.84.32,0,.64-.17.97-.51.33-.34.52-.7.57-1.08.03-.21.06-.39.09-.53l.1-.51c.06-.28.11-.47.13-.57.03-.1.04-.2.04-.28,0-.09-.07-.18-.21-.26-.14-.08-.29-.12-.46-.12Z"/>
    <path class="cls-1" d="m173.07,190.4l.7-5.74c.02-.16.03-.26.03-.3,0-.13-.1-.2-.32-.2h-.29c-.15,0-.23-.04-.22-.11,0-.09.08-.13.22-.13.43-.02.75-.05.94-.1.11-.02.19-.03.26-.03.07,0,.11.04.11.13v.07s-.8,6.53-.8,6.53c-.02.14-.03.24-.03.3,0,.21.07.32.21.32.12,0,.26-.06.4-.19.14-.13.27-.3.38-.5.04-.08.09-.12.13-.12.08,0,.11.04.11.12,0,.06-.05.17-.14.33-.09.17-.18.31-.28.42-.14.18-.31.32-.5.45-.19.12-.35.18-.49.18-.32,0-.49-.31-.49-.92,0-.15.01-.33.03-.51Z"/>
    <path class="cls-1" d="m178.53,189.48c-.48.74-.85,1.25-1.12,1.53-.2.21-.43.39-.68.55-.25.16-.45.24-.59.24-.12,0-.22-.06-.29-.19-.07-.13-.11-.29-.11-.49,0-.3.05-.69.14-1.16l.22-1.17c.06-.29.09-.49.09-.61,0-.14-.04-.22-.12-.22-.07,0-.16.05-.26.16-.1.11-.18.24-.24.39-.06.13-.12.19-.18.19-.07,0-.11-.04-.11-.13,0-.3.13-.6.39-.91.26-.3.51-.46.77-.46.3,0,.44.24.44.71,0,.12-.01.25-.03.38l-.31,1.95c0,.06-.02.16-.04.28l-.03.25c0,.06-.01.11-.01.16,0,.16.06.24.17.24.12,0,.31-.13.56-.38.25-.25.51-.57.77-.96.47-.69.82-1.44,1.03-2.25.04-.14.08-.23.12-.27s.11-.06.22-.06c.2,0,.3.08.3.23,0,.04,0,.09-.02.14l-.28,1.31c-.18.85-.28,1.48-.28,1.9,0,.18.07.28.22.28.22,0,.44-.21.66-.63.05-.09.1-.14.16-.14.07,0,.11.04.11.12,0,.27-.17.57-.52.89-.34.32-.67.48-.97.48-.26,0-.38-.2-.38-.59,0-.3.03-.65.1-1.06l.06-.32c.01-.06.03-.19.05-.37Z"/>
    <path class="cls-1" d="m182.03,188.67l.8.86c.25.27.38.6.38.98s-.15.7-.45.97c-.3.26-.67.4-1.1.4-.33,0-.61-.07-.84-.2-.23-.13-.35-.3-.35-.49,0-.24.11-.35.34-.35.13,0,.26.09.37.28l.12.21c.1.18.26.27.46.27.22,0,.41-.07.57-.21s.24-.31.24-.5c0-.3-.15-.61-.45-.93l-.63-.65c-.29-.3-.43-.62-.43-.96,0-.36.12-.65.37-.85s.58-.31,1.02-.31c.6,0,.9.18.9.53,0,.23-.12.35-.35.35-.12,0-.22-.06-.3-.17l-.12-.17c-.12-.17-.27-.26-.46-.26-.32,0-.48.18-.48.53,0,.18.13.41.39.7Z"/>
  </g>
</svg>